<?xml version="1.0" encoding="UTF-8"?>
<svg width="263px" height="115px" viewBox="0 0 263 115" version="1.1" xmlns="http://www.w3.org/2000/svg" xmlns:xlink="http://www.w3.org/1999/xlink">
    <!-- Generator: Sketch 59.1 (86144) - https://sketch.com -->
    <title>Artboard</title>
    <desc>Created with Sketch.</desc>
    <defs>
        <path d="M90.3245327,47 L78.552133,67.3906662 L66.7792,47 L90.3245327,47 Z M70.3254665,58.1666664 L75.6510664,67.3906662 L65,67.3906662 L70.3254665,58.1666664 Z M177.494131,51.0515999 C178.058131,51.0515999 178.608797,51.0709332 179.14613,51.1094666 C179.683464,51.1474666 180.171464,51.1974666 180.612797,51.2583999 C181.052797,51.3198666 181.439464,51.3771999 181.775464,51.4307999 C182.108797,51.4843999 182.364797,51.5343999 182.54213,51.5802666 L182.54213,51.5802666 L182.54213,59.070933 C182.54213,59.698533 182.45413,60.2802663 182.276797,60.8166663 C182.100797,61.3526663 181.81813,61.8162663 181.432797,62.2067996 C181.043464,62.5979996 180.536797,62.9042663 179.912797,63.1261329 C179.287464,63.3479996 178.524797,63.4594663 177.627464,63.4594663 C176.746131,63.4594663 175.992797,63.4053329 175.367464,63.2985329 C174.742131,63.1911996 174.279464,63.0766663 173.980797,62.9542663 L173.980797,62.9542663 L174.218131,61.6443996 C174.447464,61.720933 174.808797,61.8198663 175.300797,61.9427996 C175.795464,62.0651996 176.543464,62.1266663 177.547464,62.1266663 C178.251464,62.1266663 178.819464,62.031333 179.251464,61.8395996 C179.683464,61.6474663 180.01813,61.3947996 180.256797,61.0807996 C180.492797,60.7671997 180.647464,60.4151997 180.71813,60.0239997 C180.77813,59.690133 180.807464,59.3458664 180.816797,58.9947997 L180.816797,58.9947997 L180.823464,58.9947997 L180.823464,58.8338664 C180.823464,58.828133 180.824797,58.8234664 180.824797,58.817733 L180.824797,58.0823997 L180.823464,58.0823997 L180.823464,56.7729331 L180.824797,56.7729331 L180.824797,52.5911999 C180.471464,52.5297332 180.044797,52.4797332 179.54213,52.4417332 C179.040797,52.4031999 178.45413,52.3843999 177.784797,52.3843999 C177.239464,52.3843999 176.750131,52.4266665 176.318131,52.5110665 C175.887464,52.5947999 175.516797,52.7286665 175.208797,52.9125332 C174.900797,53.0963998 174.662131,53.3411998 174.495464,53.6485332 C174.327464,53.9547998 174.244797,54.3291998 174.244797,54.7739998 C174.244797,55.2797331 174.367464,55.6849331 174.614131,55.9917331 C174.860797,56.2979998 175.178131,56.5395998 175.566131,56.7157331 C175.952797,56.8917331 176.375464,57.0062664 176.834131,57.0605331 C177.292797,57.1135997 177.732797,57.1401331 178.155464,57.1401331 C178.487464,57.1401331 178.783464,57.1307997 179.051464,57.1135997 L179.051464,57.1135997 L179.051464,58.3854664 C179.028797,58.3870664 179.008797,58.3906664 178.987464,58.3927997 C178.71413,58.4162664 178.45413,58.427733 178.207464,58.427733 C177.380797,58.427733 176.614131,58.3583997 175.908797,58.2203997 C175.204797,58.0823997 174.596797,57.8641331 174.086131,57.5657331 C173.575464,57.2666664 173.178131,56.8881331 172.896797,56.4281331 C172.615464,55.9687998 172.474131,55.4177331 172.474131,54.7739998 C172.474131,54.0995998 172.602131,53.5291998 172.856797,53.0625332 C173.111464,52.5947999 173.464797,52.2119999 173.914131,51.9130665 C174.363464,51.6146666 174.891464,51.3963999 175.499464,51.2583999 C176.107464,51.1209332 176.772797,51.0515999 177.494131,51.0515999 Z M134.832798,51.0515999 C135.395465,51.0515999 135.946132,51.0709332 136.483465,51.1094666 C137.020798,51.1474666 137.510132,51.1974666 137.950132,51.2583999 C138.390131,51.3198666 138.778131,51.3771999 139.112798,51.4307999 C139.447465,51.4843999 139.703465,51.5343999 139.879465,51.5802666 L139.879465,51.5802666 L139.879465,59.070933 C139.879465,59.698533 139.791465,60.2802663 139.615465,60.8166663 C139.439465,61.3526663 139.156798,61.8162663 138.770131,62.2067996 C138.382131,62.5979996 137.875465,62.9042663 137.250132,63.1261329 C136.624798,63.3479996 135.863465,63.4594663 134.964798,63.4594663 C134.083465,63.4594663 133.330132,63.4053329 132.705198,63.2985329 C132.079732,63.1911996 131.617732,63.0766663 131.318265,62.9542663 L131.318265,62.9542663 L131.555732,61.6443996 C131.784398,61.720933 132.145865,61.8198663 132.639598,61.9427996 C133.132265,62.0651996 133.880798,62.1266663 134.884798,62.1266663 C135.590132,62.1266663 136.156798,62.031333 136.590132,61.8395996 C137.020798,61.6474663 137.355465,61.3947996 137.594132,61.0807996 C137.831465,60.7671997 137.984798,60.4151997 138.056798,60.0239997 C138.116798,59.690133 138.144798,59.3458664 138.154132,58.9947997 L138.154132,58.9947997 L138.162132,58.9947997 L138.162132,52.5911999 C137.808798,52.5297332 137.383465,52.4797332 136.880798,52.4417332 C136.378132,52.4031999 135.792798,52.3843999 135.123465,52.3843999 C134.576798,52.3843999 134.087465,52.4266665 133.656798,52.5110665 C133.224798,52.5947999 132.854665,52.7286665 132.546398,52.9125332 C132.237998,53.0963998 132.000532,53.3411998 131.833332,53.6485332 C131.666132,53.9547998 131.582798,54.3291998 131.582798,54.7739998 C131.582798,55.2797331 131.705732,55.6849331 131.952665,55.9917331 C132.198398,56.2979998 132.515598,56.5395998 132.903598,56.7157331 C133.291465,56.8917331 133.714132,57.0062664 134.171465,57.0605331 C134.630132,57.1135997 135.070132,57.1401331 135.492798,57.1401331 C135.824798,57.1401331 136.119465,57.1307997 136.388798,57.1135997 L136.388798,57.1135997 L136.388798,58.3854664 C136.366132,58.3870664 136.347465,58.3906664 136.324798,58.3927997 C136.051465,58.4162664 135.792798,58.427733 135.546132,58.427733 C134.718132,58.427733 133.951465,58.3583997 133.247465,58.2203997 C132.542665,58.0823997 131.934932,57.8641331 131.423998,57.5657331 C130.912532,57.2666664 130.516132,56.8881331 130.234398,56.4281331 C129.952665,55.9687998 129.811998,55.4177331 129.811998,54.7739998 C129.811998,54.0995998 129.940132,53.5291998 130.194798,53.0625332 C130.450532,52.5947999 130.802665,52.2119999 131.251598,51.9130665 C131.701065,51.6146666 132.230265,51.3963999 132.836932,51.2583999 C133.444798,51.1209332 134.110132,51.0515999 134.832798,51.0515999 Z M114.173999,51.0515999 C114.736932,51.0515999 115.287465,51.0709332 115.825065,51.1094666 C116.361999,51.1474666 116.851065,51.1974666 117.291732,51.2583999 C117.731199,51.3198666 118.119865,51.3771999 118.454132,51.4307999 C118.788532,51.4843999 119.044265,51.5343999 119.220265,51.5802666 L119.220265,51.5802666 L119.220265,59.070933 C119.220265,59.698533 119.132265,60.2802663 118.956799,60.8166663 C118.780265,61.3526663 118.497865,61.8162663 118.110932,62.2067996 C117.723465,62.5979996 117.216665,62.9042663 116.591199,63.1261329 C115.965599,63.3479996 115.204132,63.4594663 114.305732,63.4594663 C113.424532,63.4594663 112.671865,63.4053329 112.046399,63.2985329 C111.420799,63.1911996 110.958799,63.0766663 110.659332,62.9542663 L110.659332,62.9542663 L110.897466,61.6443996 C111.125999,61.720933 111.486932,61.8198663 111.980799,61.9427996 C112.473465,62.0651996 113.222399,62.1266663 114.226532,62.1266663 C114.930799,62.1266663 115.498932,62.031333 115.930799,61.8395996 C116.361999,61.6474663 116.697465,61.3947996 116.934932,61.0807996 C117.172932,60.7671997 117.326532,60.4151997 117.397465,60.0239997 C117.457332,59.690133 117.485999,59.3458664 117.495865,58.9947997 L117.495865,58.9947997 L117.502665,58.9947997 L117.502932,58.8257997 L117.502932,58.8257997 L117.503199,58.817733 L117.503199,58.0823997 L117.502665,58.0823997 L117.502665,56.7729331 L117.503199,56.7729331 L117.503199,52.5911999 C117.150532,52.5297332 116.723999,52.4797332 116.221332,52.4417332 C115.719865,52.4031999 115.133865,52.3843999 114.464532,52.3843999 C113.918265,52.3843999 113.429199,52.4266665 112.997865,52.5110665 C112.566132,52.5947999 112.195865,52.7286665 111.887999,52.9125332 C111.579732,53.0963998 111.341732,53.3411998 111.175066,53.6485332 C111.007332,53.9547998 110.923999,54.3291998 110.923999,54.7739998 C110.923999,55.2797331 111.046932,55.6849331 111.293732,55.9917331 C111.539599,56.2979998 111.856799,56.5395998 112.244799,56.7157331 C112.632265,56.8917331 113.054665,57.0062664 113.513065,57.0605331 C113.970799,57.1135997 114.411999,57.1401331 114.834399,57.1401331 C115.165599,57.1401331 115.460932,57.1307997 115.729732,57.1135997 L115.729732,57.1135997 L115.729732,58.3854664 C115.707865,58.3870664 115.688532,58.3906664 115.666665,58.3927997 C115.393199,58.4162664 115.133865,58.427733 114.886932,58.427733 C114.058799,58.427733 113.292665,58.3583997 112.588532,58.2203997 C111.883865,58.0823997 111.275999,57.8641331 110.765066,57.5657331 C110.253599,57.2666664 109.857332,56.8881331 109.575466,56.4281331 C109.294266,55.9687998 109.153199,55.4177331 109.153199,54.7739998 C109.153199,54.0995998 109.281199,53.5291998 109.535999,53.0625332 C109.791732,52.5947999 110.143732,52.2119999 110.592666,51.9130665 C111.042666,51.6146666 111.571332,51.3963999 112.179199,51.2583999 C112.786932,51.1209332 113.451065,51.0515999 114.173999,51.0515999 Z M187.147464,47.0542667 L187.147464,51.9938665 C187.447464,51.7943999 187.927464,51.5838666 188.587464,51.3614666 C189.248797,51.1401332 190.028797,51.0286666 190.92613,51.0286666 C191.912797,51.0286666 192.788797,51.1818666 193.555463,51.4881332 C194.32213,51.7943999 194.968797,52.2193332 195.49813,52.7635999 C196.02613,53.3073332 196.427463,53.9578665 196.699463,54.7166665 C196.972797,55.4750665 197.11013,56.3057331 197.11013,57.2094664 C197.11013,58.1745331 196.94613,59.0395997 196.620797,59.805733 C196.29413,60.5714663 195.836797,61.2223996 195.247463,61.758933 C194.656797,62.2947996 193.951463,62.7042663 193.132797,62.9881329 C192.31413,63.2714663 191.40213,63.4135996 190.39813,63.4135996 C189.18213,63.4135996 188.17813,63.3443996 187.38613,63.2062663 C186.592797,63.0687996 185.940797,62.9229329 185.43013,62.7698663 L185.43013,62.7698663 L185.43013,47.0542667 L187.147464,47.0542667 Z M123.778132,51.3042666 L123.778132,61.7130663 C123.919332,61.7739996 124.214532,61.850533 124.663599,61.9427996 C125.112532,62.0343996 125.706798,62.0807996 126.447465,62.0807996 C127.151598,62.0807996 127.719332,62.0458663 128.151598,61.9771996 C128.582798,61.9078663 128.868798,61.843333 129.009865,61.7823996 L129.009865,61.7823996 L129.353198,63.0687996 C129.159332,63.1453329 128.811998,63.2214663 128.309865,63.2985329 C127.807865,63.3750663 127.275065,63.4135996 126.710932,63.4135996 C125.601598,63.4135996 124.658799,63.3250663 123.883332,63.1490663 C123.108399,62.9729329 122.500532,62.7999996 122.060932,62.6318663 L122.060932,62.6318663 L122.060932,51.3042666 L123.778132,51.3042666 Z M97.2827992,47.0542667 L97.2827992,51.9938665 C97.5817325,51.7943999 98.0619992,51.5838666 98.7223992,51.3614666 C99.3833325,51.1401332 100.162532,51.0286666 101.060932,51.0286666 C102.047466,51.0286666 102.923999,51.1818666 103.690132,51.4881332 C104.456799,51.7943999 105.104132,52.2193332 105.632266,52.7635999 C106.160932,53.3073332 106.561466,53.9578665 106.834399,54.7166665 C107.107866,55.4750665 107.244266,56.3057331 107.244266,57.2094664 C107.244266,58.1745331 107.081199,59.0395997 106.755732,59.805733 C106.429199,60.5714663 105.971332,61.2223996 105.381732,61.758933 C104.791199,62.2947996 104.086932,62.7042663 103.267732,62.9881329 C102.447866,63.2714663 101.536932,63.4135996 100.532799,63.4135996 C99.3171991,63.4135996 98.3130658,63.3443996 97.5202659,63.2062663 C96.7275992,63.0687996 96.0759992,62.9229329 95.5650659,62.7698663 L95.5650659,62.7698663 L95.5650659,47.0542667 L97.2827992,47.0542667 Z M146.446131,51.0286666 C148.048798,51.0286666 149.312798,51.3042666 150.238131,51.8557332 C151.162131,52.4073332 151.624798,53.2187998 151.624798,54.2917332 C151.624798,54.8578665 151.510131,55.3286665 151.282131,55.7047998 C151.051465,56.0802664 150.752798,56.4010664 150.383465,56.6693331 C150.012798,56.9375998 149.584798,57.1671997 149.102131,57.3578664 C148.616798,57.5479997 148.110131,57.7349331 147.582131,57.9177331 C147.071465,58.1010664 146.618131,58.2682664 146.220798,58.4214664 C145.824798,58.5734664 145.490131,58.738133 145.216798,58.914133 C144.943465,59.0911997 144.736798,59.2943997 144.596798,59.5250664 C144.454131,59.755333 144.384798,60.031333 144.384798,60.3542663 C144.384798,60.37223 144.386787,62.4961263 144.388188,63.0887788 L144.388798,63.2406663 L142.651465,63.2406663 C142.647828,63.1810299 142.641988,60.7883908 142.640956,60.3033701 L142.640798,60.219333 C142.640798,59.714133 142.746131,59.284933 142.958131,58.932933 C143.170131,58.5802664 143.450131,58.2777331 143.803465,58.0250664 C144.155465,57.7723997 144.560798,57.5505331 145.018131,57.3589331 C145.476798,57.1671997 145.960798,56.9797331 146.472798,56.7958664 C147.106131,56.5662664 147.639465,56.3671998 148.071465,56.1985331 C148.502131,56.0302664 148.850131,55.8537331 149.114131,55.6698664 C149.379465,55.4859998 149.567465,55.2797331 149.683465,55.0495998 C149.796798,54.8198665 149.854131,54.5438665 149.854131,54.2223998 C149.854131,53.5485332 149.532798,53.0698665 148.890131,52.7865332 C148.247465,52.5026665 147.432798,52.3614665 146.446131,52.3614665 C145.899465,52.3614665 145.419465,52.3917332 145.006131,52.4531999 C144.591465,52.5141332 144.235465,52.5875999 143.935465,52.6714665 C143.635465,52.7553332 143.398131,52.8329332 143.222131,52.9010665 C143.046131,52.9703999 142.931465,53.0198665 142.878131,53.0505332 L142.878131,53.0505332 L142.428798,51.6953332 C142.640798,51.6026666 143.063465,51.4687999 143.698131,51.2933332 C144.331465,51.1166666 145.247465,51.0286666 146.446131,51.0286666 Z M158.308798,51.3042666 C158.571464,51.8375999 158.848798,52.4370665 159.140798,53.1037332 C159.431464,53.7698665 159.732798,54.4818665 160.040798,55.2395998 C160.350131,55.9979998 160.650131,56.7947998 160.938131,57.6313331 C161.228798,58.4666664 161.504798,59.3219997 161.767464,60.196933 C162.031464,59.3239997 162.308798,58.470933 162.599464,57.6365331 C162.890131,56.8026664 163.190131,56.0067998 163.500798,55.2495998 C163.811464,54.4917331 164.112798,53.7802665 164.406131,53.1146665 C164.698131,52.4490665 164.979464,51.8453332 165.246131,51.3042666 L165.246131,51.3042666 L166.838131,51.3042666 C167.739464,53.0338665 168.567464,54.8625331 169.318131,56.7911998 C170.070131,58.719333 170.763464,60.850533 171.399464,63.1838663 L171.399464,63.1838663 L169.706131,63.1838663 C169.512797,62.3703996 169.270131,61.4922663 168.978131,60.5490663 C168.687464,59.605733 168.372797,58.6703997 168.038131,57.7447997 C167.700797,56.8187998 167.366131,55.9390664 167.030131,55.1053331 C166.694131,54.2709332 166.375464,53.5635998 166.075464,52.9818665 C165.720797,53.7479998 165.371464,54.5677331 165.028797,55.4417331 C164.683464,56.3151998 164.358131,57.1999997 164.051464,58.0953331 C163.744798,58.991733 163.463464,59.8719997 163.208798,60.7370663 C162.954131,61.6026663 162.748798,62.4177329 162.591464,63.1838663 L162.591464,63.1838663 L161.111464,63.1838663 C160.902131,62.4187996 160.666131,61.603733 160.403464,60.7375997 C160.139464,59.8714663 159.859464,58.9943997 159.562131,58.1057331 C159.264798,57.2166664 158.946131,56.3349331 158.607464,55.4605331 C158.268798,54.5854665 157.930131,53.7671998 157.592798,53.0053332 C157.292798,53.5870665 156.970131,54.2922665 156.626131,55.1203998 C156.280798,55.9479998 155.940798,56.8250664 155.604798,57.7515997 C155.268798,58.677733 154.954131,59.6114664 154.663464,60.553733 C154.371464,61.4947996 154.127464,62.3714663 153.932798,63.1838663 L153.932798,63.1838663 L152.110131,63.1838663 C152.742131,60.8547997 153.431464,58.724533 154.180798,56.7943998 C154.928798,54.8646665 155.754131,53.0343998 156.658131,51.3042666 L156.658131,51.3042666 Z M190.767464,52.3843999 C190.36213,52.3843999 189.975464,52.4193332 189.60613,52.4875999 C189.235464,52.5562665 188.891464,52.6447999 188.57413,52.7521332 C188.256797,52.8589332 187.979464,52.9734665 187.74213,53.0963998 C187.504797,53.2187998 187.30613,53.3338665 187.147464,53.4411998 L187.147464,53.4411998 L187.147464,61.7359996 C187.411464,61.812533 187.804797,61.8854663 188.323464,61.9547996 C188.843464,62.0234663 189.52613,62.0578663 190.371464,62.0578663 C191.851463,62.0578663 193.039463,61.640133 193.93813,60.805333 C194.83813,59.9703997 195.28613,58.7719997 195.28613,57.2094664 C195.28613,56.5510664 195.207463,55.9261331 195.048797,55.3370665 C194.89013,54.7469331 194.63413,54.2343998 194.28213,53.7974665 C193.93013,53.3610665 193.467463,53.0162665 192.895463,52.7635999 C192.32213,52.5110665 191.61413,52.3843999 190.767464,52.3843999 Z M100.902666,52.3843999 C100.496932,52.3843999 100.109866,52.4193332 99.7401325,52.4875999 C99.3698658,52.5562665 99.0265325,52.6447999 98.7093325,52.7521332 C98.3921325,52.8589332 98.1145325,52.9734665 97.8770658,53.0963998 C97.6395992,53.2187998 97.4411992,53.3338665 97.2827992,53.4411998 L97.2827992,53.4411998 L97.2827992,61.7359996 C97.5463992,61.812533 97.9390658,61.8854663 98.4583992,61.9547996 C98.9781325,62.0234663 99.6609325,62.0578663 100.505732,62.0578663 C101.985999,62.0578663 103.175066,61.640133 104.072932,60.805333 C104.971866,59.9703997 105.421332,58.7719997 105.421332,57.2094664 C105.421332,56.5510664 105.342132,55.9261331 105.183332,55.3370665 C105.025066,54.7469331 104.769332,54.2343998 104.417199,53.7974665 C104.064132,53.3610665 103.602132,53.0162665 103.029732,52.7635999 C102.456799,52.5110665 101.747866,52.3843999 100.902666,52.3843999 Z M85.5166662,49.6990666 L71.5874665,49.6990666 L78.552133,61.762533 L85.5166662,49.6990666 Z" id="path-1"></path>
    </defs>
    <g id="Artboard" stroke="none" stroke-width="1" fill="none" fill-rule="evenodd">
        <rect fill="#005EDE" x="0" y="0" width="263" height="115"></rect>
        <mask id="mask-2" fill="white">
            <use xlink:href="#path-1"></use>
        </mask>
        <use id="Combined-Shape" fill="#FFFFFF" transform="translate(131.055065, 57.195333) scale(1, -1) translate(-131.055065, -57.195333) " xlink:href="#path-1"></use>
    </g>
</svg>