<?xml version="1.0" encoding="UTF-8"?>
<svg width="200px" height="200px" viewBox="0 0 800 800" version="1.1" xmlns="http://www.w3.org/2000/svg" xmlns:xlink="http://www.w3.org/1999/xlink">
    <!-- Generator: Sketch 59.1 (86144) - https://sketch.com -->
    <title>Group 2@3x</title>
    <desc>Created with Sketch.</desc>
    <g id="Page-1" stroke="none" stroke-width="1" fill="none" fill-rule="evenodd">
        <g id="Group-2">
            <rect id="Rectangle" fill="#005DDE" x="0" y="0" width="800" height="800"></rect>
            <g id="Group" transform="translate(157.000000, 206.000000)" fill="#FFFFFF" fill-rule="nonzero">
                <g id="paraswap_vector" transform="translate(77.000000, 0.000000)">
                    <g id="Combined-Shape" transform="translate(166.000000, 134.000000) scale(-1, 1) rotate(-180.000000) translate(-166.000000, -134.000000) translate(0.000000, -0.000000)">
                        <path d="M331.166966,0 L177.220201,267.020629 L23.2664615,0 L331.166966,0 Z M268.294866,35.3449198 L86.1437927,35.3449198 L177.220201,193.318885 L268.294866,35.3449198 Z"></path>
                        <polygon id="path-1-path" points="69.6407158 146.230155 139.283176 267.020629 -1.93911339e-17 267.020629"></polygon>
                    </g>
                </g>
                <g id="paraswap_vector-copy" transform="translate(0.000000, 309.000000)">
                    <g id="Combined-Shape" transform="translate(243.000000, 39.500000) scale(-1, 1) rotate(-180.000000) translate(-243.000000, -39.500000) ">
                        <path d="M392.049635,19.3046819 C394.743694,19.3046819 397.374059,19.3967994 399.940737,19.5803997 C402.50742,19.7614585 404.838449,19.9996938 406.946564,20.2900231 C409.048312,20.5828938 410.895304,20.8560701 412.500275,21.1114583 C414.092506,21.3668466 415.315341,21.6050819 416.162407,21.8236232 L416.162407,21.8236232 L416.162407,57.5144455 C416.162407,60.5047749 415.742058,63.276563 414.894991,65.8323512 C414.054292,68.3862335 412.704077,70.5951512 410.863458,72.4559275 C409.003731,74.3198804 406.583535,75.7791512 403.602875,76.8362803 C400.615847,77.8934099 396.972817,78.4245159 392.686527,78.4245159 C388.476665,78.4245159 384.878215,78.1665862 381.891187,77.6577156 C378.90416,77.146304 376.694139,76.6005865 375.267496,76.0173865 L375.267496,76.0173865 L376.401169,69.7762569 C377.496624,70.1409161 379.222603,70.6123041 381.572739,71.1980452 C383.935614,71.7812452 387.508585,72.0741159 392.304391,72.0741159 C395.667187,72.0741159 398.380352,71.6198808 400.443886,70.7063275 C402.50742,69.7908688 404.106019,68.5869863 405.246059,67.0908687 C406.37336,65.5966574 407.112158,63.9194809 407.449708,62.055528 C407.73631,60.4647514 407.87643,58.8244223 407.921011,57.1516927 L407.921011,57.1516927 L407.952857,57.1516927 L407.952857,56.3848928 C407.952857,56.3575749 407.959225,56.3353399 407.959225,56.3080219 L407.959225,52.804375 L407.952857,52.804375 L407.952857,46.5651518 L407.959225,46.5651518 L407.959225,26.6404231 C406.271459,26.3475523 404.233399,26.109317 401.83231,25.9282582 C399.437593,25.7446583 396.635262,25.6550819 393.438059,25.6550819 C390.833168,25.6550819 388.495771,25.8564698 386.432237,26.258611 C384.375071,26.657576 382.604506,27.295411 381.133283,28.1714817 C379.662059,29.047552 378.522024,30.213952 377.725906,31.6783052 C376.92342,33.1375755 376.528545,34.9214814 376.528545,37.0408226 C376.528545,39.450493 377.114488,41.3811518 378.292742,42.8429636 C379.470991,44.3022343 380.986801,45.4533873 382.84016,46.2926107 C384.687147,47.1311989 386.7061,47.6769164 388.897014,47.9354812 C391.087924,48.188328 393.189671,48.3147518 395.208624,48.3147518 C396.794488,48.3147518 398.208391,48.2702809 399.488546,48.188328 L399.488546,48.188328 L399.488546,54.2483987 C399.380273,54.2560223 399.284739,54.2731752 399.182838,54.2833397 C397.877203,54.3951517 396.635262,54.4497866 395.457013,54.4497866 C391.508273,54.4497866 387.84614,54.1194339 384.476972,53.4619045 C381.114176,52.804375 378.209943,51.7643989 375.770645,50.3426107 C373.331343,48.9176458 371.433402,47.1140459 370.089555,44.9222812 C368.745712,42.7336932 368.070606,40.1080224 368.070606,37.0408226 C368.070606,33.8275049 368.682024,31.1097167 369.898487,28.8861876 C371.114954,26.657576 372.80272,24.8336466 374.949053,23.4093169 C377.095381,21.9875291 379.617479,20.9475525 382.521712,20.2900231 C385.425945,19.6350347 388.60404,19.3046819 392.049635,19.3046819 Z M188.269288,19.3046819 C190.956978,19.3046819 193.587349,19.3967994 196.154027,19.5803997 C198.720705,19.7614585 201.058106,19.9996938 203.159854,20.2900231 C205.261597,20.5828938 207.114956,20.8560701 208.713559,21.1114583 C210.312163,21.3668466 211.534998,21.6050819 212.375697,21.8236232 L212.375697,21.8236232 L212.375697,57.5144455 C212.375697,60.5047749 211.955347,63.276563 211.114648,65.8323512 C210.273949,68.3862335 208.923734,70.5951512 207.076742,72.4559275 C205.223383,74.3198804 202.803192,75.7791512 199.816165,76.8362803 C196.829132,77.8934099 193.192474,78.4245159 188.899812,78.4245159 C184.689949,78.4245159 181.091504,78.1665862 178.106383,77.6577156 C175.11872,77.146304 172.911885,76.6005865 171.481421,76.0173865 L171.481421,76.0173865 L172.61573,69.7762569 C173.707998,70.1409161 175.434617,70.6123041 177.793031,71.1980452 C180.146353,71.7812452 183.72187,72.0741159 188.517676,72.0741159 C191.886844,72.0741159 194.593637,71.6198808 196.663543,70.7063275 C198.720705,69.7908688 200.319309,68.5869863 201.459349,67.0908687 C202.593017,65.5966574 203.325443,63.9194809 203.669365,62.055528 C203.955967,60.4647514 204.089715,58.8244223 204.1343,57.1516927 L204.1343,57.1516927 L204.172514,57.1516927 L204.172514,26.6404231 C202.484744,26.3475523 200.453056,26.109317 198.051967,25.9282582 C195.650883,25.7446583 192.854919,25.6550819 189.657716,25.6550819 C187.046453,25.6550819 184.709056,25.8564698 182.651889,26.258611 C180.588355,26.657576 178.820342,27.295411 177.347843,28.1714817 C175.874709,29.047552 174.740405,30.213952 173.941741,31.6783052 C173.143077,33.1375755 172.745016,34.9214814 172.745016,37.0408226 C172.745016,39.450493 173.332234,41.3811518 174.511759,42.8429636 C175.685552,44.3022343 177.200721,45.4533873 179.05408,46.2926107 C180.906804,47.1311989 182.925757,47.6769164 185.110299,47.9354812 C187.301213,48.188328 189.402961,48.3147518 191.421909,48.3147518 C193.007773,48.3147518 194.415309,48.2702809 195.701831,48.188328 L195.701831,48.188328 L195.701831,54.2483987 C195.593563,54.2560223 195.504396,54.2731752 195.396122,54.2833397 C194.090493,54.3951517 192.854919,54.4497866 191.676669,54.4497866 C187.721563,54.4497866 184.059425,54.1194339 180.696629,53.4619045 C177.330011,52.804375 174.427054,51.7643989 171.986476,50.3426107 C169.543357,48.9176458 167.649873,47.1140459 166.304115,44.9222812 C164.958361,42.7336932 164.286437,40.1080224 164.286437,37.0408226 C164.286437,33.8275049 164.898495,31.1097167 166.114957,28.8861876 C167.336522,26.657576 169.018555,24.8336466 171.162973,23.4093169 C173.309942,21.9875291 175.837771,20.9475525 178.735636,20.2900231 C181.639229,19.6350347 184.81733,19.3046819 188.269288,19.3046819 Z M89.5884224,19.3046819 C92.2773839,19.3046819 94.9071144,19.3967994 97.4750678,19.5803997 C100.03984,19.7614585 102.375961,19.9996938 104.480895,20.2900231 C106.580096,20.5828938 108.436637,20.8560701 110.03333,21.1114583 C111.630658,21.3668466 112.852217,21.6050819 113.692916,21.8236232 L113.692916,21.8236232 L113.692916,57.5144455 C113.692916,60.5047749 113.272567,63.276563 112.434419,65.8323512 C111.591169,68.3862335 110.242229,70.5951512 108.393966,72.4559275 C106.543153,74.3198804 104.122322,75.7791512 101.134659,76.8362803 C98.1463564,77.8934099 94.5090577,78.4245159 90.2176713,78.4245159 C86.0084441,78.4245159 82.4131804,78.1665862 79.4255176,77.6577156 C76.4372146,77.146304 74.2303797,76.6005865 72.799916,76.0173865 L72.799916,76.0173865 L73.9374104,69.7762569 C75.0290438,70.1409161 76.7531121,70.6123041 79.1121661,71.1980452 C81.4654833,71.7812452 85.0429156,72.0741159 89.8393567,72.0741159 C93.2034282,72.0741159 95.9172286,71.6198808 97.9801273,70.7063275 C100.03984,69.7908688 101.64226,68.5869863 102.776568,67.0908687 C103.913423,65.5966574 104.647124,63.9194809 104.985949,62.055528 C105.271916,60.4647514 105.40885,58.8244223 105.455977,57.1516927 L105.455977,57.1516927 L105.488458,57.1516927 L105.489733,56.3464574 L105.489733,56.3464574 L105.491009,56.3080219 L105.491009,52.804375 L105.488458,52.804375 L105.488458,46.5651518 L105.491009,46.5651518 L105.491009,26.6404231 C103.806425,26.3475523 101.769005,26.109317 99.367916,25.9282582 C96.972559,25.7446583 94.1734134,25.6550819 90.9762111,25.6550819 C88.3668581,25.6550819 86.030737,25.8564698 83.9703843,26.258611 C81.9081257,26.657576 80.1394717,27.295411 78.6688884,28.1714817 C77.1963897,29.047552 76.0595354,30.213952 75.2634221,31.6783052 C74.4622072,33.1375755 74.0641506,34.9214814 74.0641506,37.0408226 C74.0641506,39.450493 74.6513645,41.3811518 75.8302538,42.8429636 C77.0046865,44.3022343 78.5198554,45.4533873 80.3732146,46.2926107 C82.2240231,47.1311989 84.2417008,47.6769164 86.4313396,47.9354812 C88.6177972,48.188328 90.7252768,48.3147518 92.7429544,48.3147518 C94.3249972,48.3147518 95.735714,48.2702809 97.0196907,48.188328 L97.0196907,48.188328 L97.0196907,54.2483987 C96.9152386,54.2560223 96.8228907,54.2731752 96.7184386,54.2833397 C95.4121739,54.3951517 94.1734134,54.4497866 92.9938888,54.4497866 C89.0381467,54.4497866 85.3785551,54.1194339 82.0151237,53.4619045 C78.6491416,52.804375 75.7455486,51.7643989 73.3049755,50.3426107 C70.8618515,48.9176458 68.9690033,47.1140459 67.6226143,44.9222812 C66.2794065,42.7336932 65.6055719,40.1080224 65.6055719,37.0408226 C65.6055719,33.8275049 66.2169894,31.1097167 67.4340923,28.8861876 C68.6556519,26.657576 70.3370499,24.8336466 72.4814725,23.4093169 C74.6309871,21.9875291 77.1562655,20.9475525 80.0598632,20.2900231 C82.9628208,19.6350347 86.1351843,19.3046819 89.5884224,19.3046819 Z M438.160702,0.258564865 L438.160702,23.7943051 C439.593712,22.8439054 441.886527,21.8407762 445.039148,20.7811056 C448.198137,19.726517 451.923962,19.1954114 456.210252,19.1954114 C460.923263,19.1954114 465.107652,19.9253644 468.769784,21.3846347 C472.431922,22.8439054 475.520856,24.8685876 478.04932,27.4618583 C480.571417,30.0525876 482.488464,33.1521874 483.787726,36.7676463 C485.09336,40.3811992 485.749359,44.3390812 485.749359,48.6451046 C485.749359,53.2433636 484.96598,57.3651515 483.411962,61.0155514 C481.851572,64.6640453 479.66703,67.765551 476.851959,70.3219749 C474.030525,72.8752216 470.661357,74.82621 466.750836,76.1787509 C462.84031,77.5287512 458.483961,78.2059746 453.688155,78.2059746 C447.879689,78.2059746 443.083883,77.8762569 439.300737,77.2180924 C435.511225,76.563104 432.396817,75.8680921 429.957514,75.1387747 L429.957514,75.1387747 L429.957514,0.258564865 L438.160702,0.258564865 Z M135.464475,20.5085644 L135.464475,70.1034335 C136.138945,70.3937628 137.549027,70.7584219 139.694085,71.1980452 C141.838502,71.6344922 144.677132,71.8555746 148.215076,71.8555746 C151.578507,71.8555746 154.290401,71.6891277 156.355206,71.361951 C158.414919,71.0315983 159.781055,70.7241161 160.454889,70.4337863 L160.454889,70.4337863 L162.094888,76.563104 C161.168848,76.9277626 159.509738,77.2905159 157.1112,77.6577156 C154.713297,78.0223747 152.168272,78.2059746 149.473578,78.2059746 C144.174623,78.2059746 139.671156,77.7841394 135.966984,76.9455512 C132.265362,76.1063273 129.361765,75.282351 127.261928,74.4812453 L127.261928,74.4812453 L127.261928,20.5085644 L135.464475,20.5085644 Z M8.90424472,0.258564865 L8.90424472,23.7943051 C10.3321591,22.8439054 12.6262486,21.8407762 15.7807806,20.7811056 C18.9378601,19.726517 22.6598616,19.1954114 26.951248,19.1954114 C31.663624,19.1954114 35.8505583,19.9253644 39.5101451,21.3846347 C43.1722826,22.8439054 46.2643975,24.8685876 48.7871347,27.4618583 C51.312413,30.0525876 53.2256434,33.1521874 54.5293622,36.7676463 C55.8356318,40.3811992 56.4871735,44.3390812 56.4871735,48.6451046 C56.4871735,53.2433636 55.7082515,57.3651515 54.1535936,61.0155514 C52.5938438,64.6640453 50.4067509,67.765551 47.5904092,70.3219749 C44.7696108,72.8752216 41.4055393,74.82621 37.4924674,76.1787509 C33.5762143,77.5287512 29.2249567,78.2059746 24.4285156,78.2059746 C18.6219607,78.2059746 13.8255182,77.8762569 10.0385517,77.2180924 C6.25222142,76.563104 3.13972433,75.8680921 0.699149736,75.1387747 L0.699149736,75.1387747 L0.699149736,0.258564865 L8.90424472,0.258564865 Z M243.742684,19.1954114 C251.398142,19.1954114 257.435889,20.5085644 261.855927,23.1361405 C266.269597,25.7643523 268.479618,29.630752 268.479618,34.7429641 C268.479618,37.4404227 267.931888,39.6836463 266.842801,41.4758108 C265.740978,43.2647987 264.314336,44.7933164 262.550143,46.0715283 C260.779579,47.3497402 258.735152,48.4437162 256.429597,49.352187 C254.111307,50.2581162 251.691111,51.1487989 249.169014,52.0197871 C246.729716,52.8933164 244.564276,53.6899752 242.666336,54.4199281 C240.774763,55.1441634 239.17616,55.9287514 237.87053,56.7673396 C236.564901,57.6110103 235.577715,58.5791986 234.908977,59.6782576 C234.2275,60.7754102 233.896317,62.090469 233.896317,63.6291512 C233.896317,63.7147429 233.905818,73.8344841 233.91251,76.658299 L233.915423,77.3819983 L225.616707,77.3819983 C225.599334,77.0978483 225.571438,65.6976268 225.566508,63.3866458 L225.565754,62.9862337 C225.565754,60.5791043 226.068898,58.5340925 227.081558,56.8569161 C228.094218,55.1765634 229.431694,53.7350812 231.119464,52.5311987 C232.800862,51.3273162 234.737016,50.2701871 236.921558,49.3572695 C239.112472,48.4437162 241.424394,47.550493 243.870064,46.6744223 C246.895305,45.5804458 249.442881,44.631952 251.506415,43.8283048 C253.563577,43.0265634 255.225868,42.1854342 256.486917,41.3093634 C257.754338,40.4332932 258.652357,39.450493 259.206454,38.3539755 C259.747812,37.2593639 260.021674,35.9443051 260.021674,34.4126108 C260.021674,31.2018347 258.486763,28.9211286 255.416936,27.5711288 C252.347114,26.2185874 248.455695,25.545811 243.742684,25.545811 C241.131425,25.545811 238.83861,25.6900229 236.864237,25.9828936 C234.883503,26.2732229 233.182998,26.6232701 231.749988,27.0228698 C230.316978,27.42247 229.183305,27.7922111 228.342606,28.1168463 C227.501907,28.4471995 226.954182,28.6828933 226.699422,28.8290111 L226.699422,28.8290111 L224.553093,22.3718817 C225.565754,21.9303526 227.584707,21.2925172 230.616315,20.45647 C233.641561,19.6147056 238.017017,19.1954114 243.742684,19.1954114 Z M300.407074,20.5085644 C301.66175,23.0497407 302.986491,25.9060227 304.381288,29.0824935 C305.769712,32.2564227 307.209093,35.6488933 308.680317,39.2592696 C310.157907,42.8728226 311.590917,46.6693402 312.966606,50.6551754 C314.355035,54.6352928 315.673404,58.7107045 316.92808,62.8795043 C318.189129,58.7202339 319.51387,54.6556219 320.902294,50.6799518 C322.290723,46.7068223 323.723733,42.914752 325.207695,39.3069167 C326.691653,35.6959048 328.131035,32.3059757 329.532199,29.1345874 C330.926995,25.9631992 332.270838,23.0865876 333.544626,20.5085644 L333.544626,20.5085644 L341.149131,20.5085644 C345.454527,28.7495992 349.409634,37.4626577 352.995344,46.6521873 C356.587422,55.8391749 359.899265,65.9937161 362.937246,77.111363 L362.937246,77.111363 L354.848703,77.111363 C353.925205,73.2354334 352.766063,69.0513865 351.371267,64.5573159 C349.982838,60.0626102 348.479768,55.6060221 346.881169,51.1958103 C345.269826,46.7836932 343.671228,42.5920223 342.066257,38.6195283 C340.461286,34.6438582 338.93911,31.2736226 337.5061,28.5018345 C335.811962,32.1522343 334.143304,36.0580224 332.506487,40.2223754 C330.856935,44.3841873 329.302917,48.5999986 327.838061,52.8659989 C326.37321,57.1370808 325.029362,61.3312927 323.812899,65.4530806 C322.596432,69.57741 321.615618,73.4609626 320.86408,77.111363 L320.86408,77.111363 L313.794566,77.111363 C312.794645,73.4660452 311.667344,69.5824925 310.412663,65.4556221 C309.151614,61.3287512 307.814139,57.1497868 306.393868,52.9155518 C304.973598,48.6794105 303.451422,44.4782107 301.833712,40.3119518 C300.216006,36.1425169 298.598296,32.2437167 296.986957,28.6136464 C295.553948,31.3854345 294.012665,34.7455051 292.36948,38.6913167 C290.719928,42.6345873 289.095851,46.8135517 287.49088,51.2282103 C285.885909,55.6409631 284.382839,60.0899281 282.994411,64.5795514 C281.599614,69.0634569 280.4341,73.2405159 279.504239,77.111363 L279.504239,77.111363 L270.797907,77.111363 C273.816781,66.0140456 277.109517,55.8639514 280.68886,46.6674343 C284.261831,37.4728227 288.204199,28.7521402 292.522334,20.5085644 L292.522334,20.5085644 L300.407074,20.5085644 Z M455.452352,25.6550819 C453.516194,25.6550819 451.669207,25.8215288 449.905009,26.1467995 C448.134449,26.4739757 446.491265,26.8958113 444.975456,27.4072229 C443.459652,27.9160935 442.134915,28.461811 441.001242,29.047552 C439.867574,29.630752 438.918602,30.179011 438.160702,30.6904226 L438.160702,30.6904226 L438.160702,70.212704 C439.42175,70.5773631 441.300584,70.9248688 443.7781,71.2552216 C446.261983,71.5823983 449.522873,71.7463041 453.560779,71.7463041 C460.630289,71.7463041 466.305008,69.7559278 470.59767,65.7783514 C474.896699,61.8001397 477.03666,56.0901162 477.03666,48.6451046 C477.03666,45.5080223 476.660891,42.5303989 475.902991,39.7236698 C475.145087,36.9118577 473.922252,34.4697873 472.240854,32.3879286 C470.559456,30.308611 468.349435,28.6657404 465.617163,27.4618583 C462.878524,26.258611 459.496621,25.6550819 455.452352,25.6550819 Z M26.195259,25.6550819 C24.2571897,25.6550819 22.408292,25.8215288 20.6421863,26.1467995 C18.8735337,26.4739757 17.2335339,26.8958113 15.718365,27.4072229 C14.203196,27.9160935 12.8771844,28.461811 11.7428774,29.047552 C10.6085709,29.630752 9.66087385,30.179011 8.90424472,30.6904226 L8.90424472,30.6904226 L8.90424472,70.212704 C10.1633826,70.5773631 12.0390328,70.9248688 14.5197321,71.2552216 C17.0023417,71.5823983 20.2638717,71.7463041 24.2992247,71.7463041 C31.3700146,71.7463041 37.0498298,69.7559278 41.3386655,65.7783514 C45.6326026,61.8001397 47.7795664,56.0901162 47.7795664,48.6451046 C47.7795664,45.5080223 47.4012519,42.5303989 46.6427121,39.7236698 C45.886723,36.9118577 44.6651587,34.4697873 42.9831253,32.3879286 C41.2966305,30.308611 39.0897956,28.6657404 36.355613,27.4618583 C33.6188845,26.258611 30.232525,25.6550819 26.195259,25.6550819 Z" id="path-1"></path>
                    </g>
                </g>
            </g>
        </g>
    </g>
</svg>