<?xml version="1.0" encoding="UTF-8"?>
<svg width="469px" height="48px" viewBox="0 0 469 48" version="1.1" xmlns="http://www.w3.org/2000/svg" xmlns:xlink="http://www.w3.org/1999/xlink">
    <!-- Generator: Sketch 59.1 (86144) - https://sketch.com -->
    <title>logo_paraswap-handbook</title>
    <desc>Created with Sketch.</desc>
    <g id="Page-1" stroke="none" stroke-width="1" fill="none" fill-rule="evenodd">
        <g id="Desktop-HD-Copy-2" transform="translate(-211.000000, -67.000000)" fill="#FFFFFF" fill-rule="nonzero">
            <g id="logo_paraswap-handbook" transform="translate(211.000000, 67.000000)">
                <path d="M60,0 L32.2506285,48 L4.5,0 L60,0 Z M12.7498403,25.5 L25.5,48 L0,48 L12.7498403,25.5 Z M48.6671132,6.35365199 L15.8338297,6.35365199 L32.2506285,34.7512718 L48.6671132,6.35365199 Z" id="Combined-Shape" transform="translate(30.000000, 24.000000) scale(-1, 1) rotate(-180.000000) translate(-30.000000, -24.000000) "></path>
                <path d="M218.974971,18.5 C219.983314,18.5 220.967819,18.5350583 221.928486,18.6049335 C222.889154,18.6738414 223.761622,18.7645097 224.550656,18.875004 C225.337307,18.9864656 226.028606,19.0904319 226.629322,19.1876283 C227.225269,19.2848247 227.682956,19.375493 228,19.4586661 L228,19.4586661 L228,33.041984 C228,34.1800524 227.84267,35.2349476 227.525626,36.207637 C227.210966,37.179601 226.705602,38.0202774 226.016687,38.7284571 C225.320621,39.4378458 224.41478,39.9932193 223.299166,40.3955446 C222.181169,40.7978701 220.81764,41 219.21335,41 C217.637665,41 216.290822,40.9018363 215.172825,40.7081689 C214.054828,40.5135344 213.227652,40.3058436 212.693682,40.0838876 L212.693682,40.0838876 L213.117998,37.7086202 C213.528009,37.8474033 214.174016,38.0268055 215.053635,38.2497285 C215.938021,38.4716845 217.275328,38.5831461 219.070322,38.5831461 C220.328963,38.5831461 221.344458,38.410272 222.116806,38.0625892 C222.889154,37.7141813 223.487485,37.2560041 223.914184,36.6866073 C224.336115,36.1179359 224.612635,35.4796312 224.738975,34.7702425 C224.846245,34.1648201 224.89869,33.5405388 224.915376,32.9039265 L224.915376,32.9039265 L224.927295,32.9039265 L224.927295,32.6120956 C224.927295,32.6016988 224.929678,32.5932365 224.929678,32.5828398 L224.929678,31.2494116 L224.927295,31.2494116 L224.927295,28.8748697 L224.929678,28.8748697 L224.929678,21.2918579 C224.297975,21.1803963 223.535161,21.089728 222.636471,21.0208201 C221.740167,20.9509452 220.691298,20.9168539 219.494636,20.9168539 C218.519667,20.9168539 217.644816,20.9934987 216.872468,21.1465468 C216.102503,21.298386 215.439809,21.5411351 214.889153,21.8745527 C214.338497,22.2079701 213.9118,22.651882 213.613826,23.2091899 C213.313468,23.7645633 213.165673,24.4434874 213.165673,25.2500725 C213.165673,26.1671519 213.384982,26.9019277 213.825984,27.4582684 C214.266984,28.0136419 214.834327,28.4517511 215.52801,28.7711452 C216.219308,29.0902975 216.97497,29.2979883 217.794995,29.3963937 C218.615018,29.4926228 219.401668,29.5407376 220.157331,29.5407376 C220.750894,29.5407376 221.280096,29.5238127 221.759238,29.4926228 L221.759238,29.4926228 L221.759238,31.7989823 C221.718713,31.8018837 221.682956,31.8084119 221.644816,31.8122803 C221.156138,31.854834 220.691298,31.8756272 220.250298,31.8756272 C218.772348,31.8756272 217.401669,31.7499005 216.140643,31.499656 C214.882002,31.2494116 213.794993,30.8536144 212.882003,30.3125061 C211.96901,29.7701887 211.258641,29.0837694 210.75566,28.2496212 C210.252681,27.4166819 210,26.4173964 210,25.2500725 C210,24.0271386 210.228844,22.9927948 210.684147,22.1465576 C211.139451,21.298386 211.771155,20.6042296 212.574494,20.062154 C213.37783,19.5210459 214.321812,19.1252485 215.40882,18.875004 C216.495828,18.6257266 217.685339,18.5 218.974971,18.5 Z M140.976876,18.5 C141.982889,18.5 142.967447,18.5350583 143.928165,18.6049335 C144.888883,18.6738414 145.763781,18.7645097 146.550474,18.875004 C147.337164,18.9864656 148.030884,19.0904319 148.629247,19.1876283 C149.227611,19.2848247 149.685323,19.375493 150,19.4586661 L150,19.4586661 L150,33.041984 C150,34.1800524 149.842662,35.2349476 149.527985,36.207637 C149.213308,37.179601 148.707917,38.0202774 148.01658,38.7284571 C147.322861,39.4378458 146.416974,39.9932193 145.298917,40.3955446 C144.180859,40.7978701 142.819644,41 141.212883,41 C139.637115,41 138.290203,40.9018363 137.17286,40.7081689 C136.054566,40.5135344 135.228539,40.3058436 134.693111,40.0838876 L134.693111,40.0838876 L135.117687,37.7086202 C135.526528,37.8474033 136.172808,38.0268055 137.055572,38.2497285 C137.936429,38.4716845 139.274759,38.5831461 141.069848,38.5831461 C142.330941,38.5831461 143.344105,38.410272 144.118879,38.0625892 C144.888883,37.7141813 145.487246,37.2560041 145.913968,36.6866073 C146.338304,36.1179359 146.612454,35.4796312 146.741186,34.7702425 C146.848462,34.1648201 146.898524,33.5405388 146.915213,32.9039265 L146.915213,32.9039265 L146.929516,32.9039265 L146.929516,21.2918579 C146.297777,21.1803963 145.537308,21.089728 144.638571,21.0208201 C143.739836,20.9509452 142.693296,20.9168539 141.49657,20.9168539 C140.519164,20.9168539 139.644267,20.9934987 138.874261,21.1465468 C138.101872,21.298386 137.440098,21.5411351 136.888936,21.8745527 C136.337536,22.2079701 135.912962,22.651882 135.614019,23.2091899 C135.315075,23.7645633 135.166079,24.4434874 135.166079,25.2500725 C135.166079,26.1671519 135.385878,26.9019277 135.827378,27.4582684 C136.266734,28.0136419 136.833867,28.4517511 137.527587,28.7711452 C138.221069,29.0902975 138.976771,29.2979883 139.794454,29.3963937 C140.614522,29.4926228 141.401214,29.5407376 142.156914,29.5407376 C142.75051,29.5407376 143.277356,29.5238127 143.758906,29.4926228 L143.758906,29.4926228 L143.758906,31.7989823 C143.718381,31.8018837 143.685005,31.8084119 143.644478,31.8122803 C143.155776,31.854834 142.693296,31.8756272 142.252272,31.8756272 C140.77186,31.8756272 139.401108,31.7499005 138.1424,31.499656 C136.882261,31.2494116 135.795673,30.8536144 134.882155,30.3125061 C133.967686,29.7701887 133.258947,29.0837694 132.755225,28.2496212 C132.251504,27.4166819 132,26.4173964 132,25.2500725 C132,24.0271386 132.229096,22.9927948 132.684422,22.1465576 C133.141659,21.298386 133.771251,20.6042296 134.573915,20.062154 C135.377533,19.5210459 136.32371,19.1252485 137.408392,18.875004 C138.495219,18.6257266 139.684794,18.5 140.976876,18.5 Z M103.477233,18.5 C104.483762,18.5 105.46812,18.5350583 106.429353,18.6049335 C107.389396,18.6738414 108.26385,18.7645097 109.051767,18.875004 C109.837537,18.9864656 110.532475,19.0904319 111.130148,19.1876283 C111.728058,19.2848247 112.18531,19.375493 112.5,19.4586661 L112.5,19.4586661 L112.5,33.041984 C112.5,34.1800524 112.342655,35.2349476 112.028921,36.207637 C111.713276,37.179601 111.208343,38.0202774 110.516503,38.7284571 C109.823709,39.4378458 108.917546,39.9932193 107.799208,40.3955446 C106.680629,40.7978701 105.31912,41 103.712773,41 C102.13718,41 100.791405,40.9018363 99.6730663,40.7081689 C98.5544882,40.5135344 97.7284282,40.3058436 97.1929787,40.0838876 L97.1929787,40.0838876 L97.6187643,37.7086202 C98.0273833,37.8474033 98.6727345,38.0268055 99.555773,38.2497285 C100.436664,38.4716845 101.775764,38.5831461 103.571163,38.5831461 C104.830398,38.5831461 105.846225,38.410272 106.618407,38.0625892 C107.389396,37.7141813 107.989212,37.2560041 108.413805,36.6866073 C108.839351,36.1179359 109.113989,35.4796312 109.240818,34.7702425 C109.347861,34.1648201 109.399118,33.5405388 109.416758,32.9039265 L109.416758,32.9039265 L109.428917,32.9039265 L109.429394,32.5974677 L109.429394,32.5974677 L109.429871,32.5828398 L109.429871,31.2494116 L109.428917,31.2494116 L109.428917,28.8748697 L109.429871,28.8748697 L109.429871,21.2918579 C108.7993,21.1803963 108.036655,21.089728 107.137882,21.0208201 C106.241255,20.9509452 105.193482,20.9168539 103.996709,20.9168539 C103.019979,20.9168539 102.145525,20.9934987 101.374296,21.1465468 C100.602353,21.298386 99.9403128,21.5411351 99.3898458,21.8745527 C98.8386617,22.2079701 98.4131157,22.651882 98.1151155,23.2091899 C97.8152056,23.7645633 97.6662055,24.4434874 97.6662055,25.2500725 C97.6662055,26.1671519 97.8860108,26.9019277 98.3272913,27.4582684 C98.7669036,28.0136419 99.3340599,28.4517511 100.027807,28.7711452 C100.7206,29.0902975 101.475855,29.2979883 102.295478,29.3963937 C103.11391,29.4926228 103.902779,29.5407376 104.658034,29.5407376 C105.250223,29.5407376 105.77828,29.5238127 106.258897,29.4926228 L106.258897,29.4926228 L106.258897,31.7989823 C106.219799,31.8018837 106.185231,31.8084119 106.146133,31.8122803 C105.657173,31.854834 105.193482,31.8756272 104.751964,31.8756272 C103.271255,31.8756272 101.901401,31.7499005 100.642405,31.499656 C99.3824541,31.2494116 98.2955845,30.8536144 97.382032,30.3125061 C96.4675246,29.7701887 95.7589958,29.0837694 95.255017,28.2496212 C94.752229,27.4166819 94.5,26.4173964 94.5,25.2500725 C94.5,24.0271386 94.7288651,22.9927948 95.1844497,22.1465576 C95.6417025,21.298386 96.2710815,20.6042296 97.0737793,20.062154 C97.8783831,19.5210459 98.8236425,19.1252485 99.9105138,18.875004 C100.997146,18.6257266 102.184621,18.5 103.477233,18.5 Z M237.087672,11 L237.087672,20.0583152 C237.627056,19.6925302 238.49007,19.306451 239.676714,18.8986104 C240.865754,18.4927258 242.268151,18.2883166 243.881507,18.2883166 C245.65548,18.2883166 247.23048,18.5692571 248.608904,19.1308936 C249.987329,19.6925302 251.150001,20.4717796 252.101712,21.4698643 C253.051027,22.4669709 253.772602,23.6599291 254.261643,25.0514283 C254.753083,26.4421941 255,27.9654835 255,29.6227637 C255,31.3925181 254.705137,32.9788907 254.120206,34.3838379 C253.532877,35.7880516 252.710617,36.9817432 251.651027,37.9656466 C250.589042,38.9483271 249.32089,39.6992135 247.848973,40.2197725 C246.377055,40.7393537 244.737329,41 242.932192,41 C240.74589,41 238.940753,40.8731 237.516781,40.619789 C236.090412,40.3677004 234.918151,40.1002077 234,39.8195118 L234,39.8195118 L234,11 L237.087672,11 Z M120.179012,18.5 L120.179012,37.8402885 C120.440412,37.9535069 120.986909,38.0957113 121.818256,38.2671492 C122.649355,38.4373485 123.749506,38.523563 125.120685,38.523563 C126.42423,38.523563 127.475262,38.4586545 128.275506,38.3310669 C129.073777,38.2022407 129.603242,38.0823332 129.864396,37.9691146 L129.864396,37.9691146 L130.5,40.3593371 C130.1411,40.5015414 129.498089,40.6430027 128.568502,40.7861979 C127.639161,40.9284024 126.652801,41 125.608435,41 C123.554751,41 121.80937,40.8354988 120.373766,40.5084784 C118.939151,40.18121 117.813821,39.8598877 117,39.5474841 L117,39.5474841 L117,18.5 L120.179012,18.5 Z M72.0886019,11 L72.0886019,20.0583152 C72.6261044,19.6925302 73.4896567,19.306451 74.6771011,18.8986104 C75.8655043,18.4927258 77.2665583,18.2883166 78.8819429,18.2883166 C80.6557984,18.2883166 82.2318647,18.5692571 83.6094242,19.1308936 C84.9879438,19.6925302 86.1518928,20.4717796 87.1015138,21.4698643 C88.0520914,22.4669709 88.7722789,23.6599291 89.2630311,25.0514283 C89.7547435,26.4421941 90,27.9654835 90,29.6227637 C90,31.3925181 89.7067944,32.9788907 89.1215825,34.3838379 C88.5344538,35.7880516 87.7111777,36.9817432 86.6510366,37.9656466 C85.5892179,38.9483271 84.3228977,39.6992135 82.8499201,40.2197725 C81.375745,40.7393537 79.7378234,41 77.9323236,41 C75.7465919,41 73.9410916,40.8731 72.5155832,40.619789 C71.0903143,40.3677004 69.918693,40.1002077 69,39.8195118 L69,39.8195118 L69,11 L72.0886019,11 Z M161.708133,18.5 C164.583732,18.5 166.851675,19.0077792 168.511961,20.0238289 C170.169856,21.0401244 171,22.5352111 171,24.5120374 C171,25.5551097 170.794258,26.4225352 170.385167,27.1155421 C169.971292,27.8073205 169.435407,28.3983785 168.772728,28.8926465 C168.107656,29.3869145 167.339713,29.8099409 166.473684,30.1612348 C165.602871,30.5115459 164.693779,30.8559613 163.746411,31.1927612 C162.830144,31.5305437 162.016746,31.8386013 161.303828,32.1208647 C160.593301,32.4009171 159.992822,32.7043071 159.502392,33.0285783 C159.011962,33.3548149 158.641148,33.7292007 158.389952,34.1541926 C158.133971,34.5784473 158.009569,35.0869636 158.009569,35.681952 C158.009569,35.7150493 158.013138,39.6282222 158.015652,40.7201549 L158.016746,41 L154.899522,41 C154.892996,40.8901229 154.882518,36.4818048 154.880666,35.5881783 L154.880383,35.4333442 C154.880383,34.5025384 155.069377,33.7117588 155.44976,33.0632164 C155.830143,32.4134458 156.332535,31.8560433 156.966508,31.3905175 C157.598087,30.9249917 158.325359,30.5162135 159.145932,30.1632001 C159.9689,29.8099409 160.837321,29.464543 161.755981,29.1257778 C162.892344,28.7027513 163.849283,28.335981 164.624403,28.025221 C165.397129,27.715198 166.021531,27.3899442 166.495215,27.051179 C166.971292,26.712414 167.308613,26.3323779 167.516747,25.9083688 C167.720096,25.4850966 167.822966,24.9765804 167.822966,24.384294 C167.822966,23.1427285 167.246411,22.2608089 166.093301,21.7387815 C164.940192,21.2157713 163.478469,20.9556173 161.708133,20.9556173 C160.727273,20.9556173 159.866029,21.0113822 159.124401,21.1246315 C158.380383,21.2368981 157.741627,21.3722568 157.20335,21.5267768 C156.665072,21.681297 156.239234,21.8242712 155.923444,21.9498034 C155.607655,22.0775467 155.401914,22.1686864 155.306219,22.2251883 L155.306219,22.2251883 L154.5,19.7282999 C154.880383,19.5575664 155.638757,19.3109236 156.777511,18.987635 C157.913876,18.6621356 159.557417,18.5 161.708133,18.5 Z M184.068674,18.5 C184.558892,19.4427927 185.076485,20.5024915 185.62145,21.6809825 C186.163924,22.8585305 186.726309,24.1171588 187.301134,25.4566315 C187.878448,26.7972827 188.438343,28.205815 188.975842,29.6845853 C189.518318,31.1612344 190.033422,32.6732381 190.52364,34.2198895 C191.016347,32.6767736 191.53394,31.1687766 192.076415,29.6937776 C192.618892,28.2197211 193.178787,26.8128388 193.75859,25.4743088 C194.338391,24.1346003 194.900775,22.876915 195.448227,21.7003097 C195.993192,20.5237044 196.518248,19.4564631 197.015933,18.5 L197.015933,18.5 L199.987109,18.5 C201.669282,21.5574766 203.214592,24.790077 204.615574,28.1994512 C206.019044,31.6078823 207.313023,35.375282 208.5,39.5 L208.5,39.5 L205.339705,39.5 C204.978882,38.0620054 204.525991,36.5096972 203.981026,34.8423683 C203.43855,33.1748038 202.851282,31.5213811 202.226689,29.8851644 C201.597117,28.2482407 200.972524,26.693104 200.345442,25.2192834 C199.718359,23.7442843 199.123626,22.4939054 198.563731,21.4655543 C197.90181,22.819876 197.249844,24.2689483 196.610319,25.8139499 C195.965819,27.3580087 195.358644,28.9221016 194.786307,30.504815 C194.213971,32.0894137 193.688912,33.6454931 193.213625,35.1747027 C192.738336,36.7048553 192.35512,38.1456782 192.061484,39.5 L192.061484,39.5 L189.299336,39.5 C188.908654,38.1475638 188.468204,36.706741 187.977984,35.1756457 C187.485276,33.6445502 186.962708,32.0941277 186.40779,30.5231994 C185.852873,28.9515639 185.258139,27.3928919 184.62608,25.8471833 C183.994022,24.3002963 183.361962,22.8538165 182.732392,21.5070372 C182.172497,22.5353883 181.570298,23.781996 180.928285,25.2459173 C180.283785,26.7088959 179.649237,28.2593184 179.022155,29.897185 C178.395072,31.5343444 177.807804,33.1849389 177.265327,34.8506178 C176.720363,36.5141754 176.264982,38.063891 175.901673,39.5 L175.901673,39.5 L172.5,39.5 C173.679512,35.3828244 174.966026,31.6170745 176.36452,28.2051079 C177.760525,24.7938483 179.300857,21.5584193 180.988007,18.5 L180.988007,18.5 L184.068674,18.5 Z M243.671855,20 C242.924803,20 242.212156,20.0650025 241.531454,20.1920304 C240.848297,20.3198025 240.214286,20.4845419 239.629422,20.6842634 C239.04456,20.8829926 238.533421,21.0961116 238.096001,21.324861 C237.658584,21.552618 237.29243,21.7667295 237,21.9664511 L237,21.9664511 L237,37.4010833 C237.486566,37.5434936 238.2115,37.679205 239.167431,37.8082176 C240.125819,37.9359899 241.38401,38 242.942006,38 C245.669724,38 247.859272,37.2226986 249.515563,35.6693361 C251.174312,34.1157255 252,31.8857906 252,28.9782911 C252,27.7531666 251.855012,26.5903157 251.562582,25.4942041 C251.270151,24.3961074 250.798329,23.4424059 250.149574,22.6293779 C249.500819,21.8173422 248.648099,21.1757521 247.593872,20.7056002 C246.537188,20.2356962 245.232306,20 243.671855,20 Z M78.6717188,20 C77.9239169,20 77.2105217,20.0650025 76.5290718,20.1920304 C75.8466392,20.3198025 75.213847,20.4845419 74.6292208,20.6842634 C74.0445945,20.8829926 73.5329544,21.0961116 73.0952833,21.324861 C72.6576124,21.552618 72.2919445,21.7667295 72,21.9664511 L72,21.9664511 L72,37.4010833 C72.485837,37.5434936 73.2095545,37.679205 74.1667296,37.8082176 C75.1246418,37.9359899 76.3830996,38 77.940136,38 C80.6683925,38 82.859943,37.2226986 84.5147855,35.6693361 C86.1715964,34.1157255 87,31.8857906 87,28.9782911 C87,27.7531666 86.8540277,26.5903157 86.561346,25.4942041 C86.2696485,24.3961074 85.7983092,23.4424059 85.1492985,22.6293779 C84.4985663,21.8173422 83.6470615,21.1757521 82.5920802,20.7056002 C81.5361165,20.2356962 80.2294934,20 78.6717188,20 Z" id="path-1" transform="translate(162.000000, 26.000000) scale(-1, 1) rotate(-180.000000) translate(-162.000000, -26.000000) "></path>
                <path d="M299.31396,31 C298.640695,31 297.983469,30.8974018 297.342264,30.6922025 C296.701059,30.4870031 296.131998,30.1340654 295.635065,29.6333789 C295.138131,29.1326924 294.741391,28.4637525 294.444834,27.626539 C294.148276,26.7893297 294,25.7387204 294,24.4746922 L294,14.4774282 L295.106073,14.4774282 L295.106073,24.3515732 C295.106073,25.4350259 295.22229,26.3337858 295.454727,27.0478796 C295.687163,27.7619735 295.995739,28.3365231 296.380462,28.7715458 C296.765185,29.2065685 297.210014,29.514363 297.714963,29.6949384 C298.219912,29.8755139 298.752906,29.9658003 299.31396,29.9658003 C299.891044,29.9658003 300.440068,29.8755139 300.961047,29.6949384 C301.482026,29.514363 301.938878,29.2065685 302.331616,28.7715458 C302.724354,28.3365231 303.040944,27.7619735 303.281396,27.0478796 C303.521848,26.3337858 303.642072,25.4350259 303.642072,24.3515732 L303.642072,14.4774282 L304.67601,14.4774282 L304.67601,24.4746922 C304.67601,25.7387204 304.523726,26.7893297 304.219154,27.626539 C303.914581,28.4637525 303.513834,29.1326924 303.0169,29.6333789 C302.519966,30.1340654 301.950905,30.4870031 301.3097,30.6922025 C300.668495,30.8974018 300.003255,31 299.31396,31 Z M311.961665,31 C311.096039,31 310.302559,30.8399469 309.581204,30.5198358 C308.859848,30.1997248 308.242697,29.8180597 307.729733,29.374829 L308.354905,28.5622435 C308.851839,28.9890582 309.380825,29.3460998 309.94188,29.6333789 C310.502934,29.9206581 311.200234,30.0642955 312.0338,30.0642955 C312.947518,30.0642955 313.632795,29.8303717 314.089654,29.3625171 C314.546512,28.8946625 314.774938,28.3488403 314.774938,27.7250342 C314.774938,27.3638833 314.690781,27.043777 314.522465,26.7647059 C314.354149,26.4856347 314.133738,26.247607 313.861226,26.0506156 C313.588713,25.8536242 313.288153,25.6812593 312.959536,25.5335157 C312.630918,25.3857722 312.298298,25.2462387 311.961665,25.1149111 C311.528852,24.9507516 311.092038,24.7783867 310.651209,24.5978112 C310.210381,24.4172358 309.813641,24.1997277 309.460978,23.9452804 C309.108316,23.6908332 308.823785,23.3871427 308.607378,23.0341997 C308.390972,22.6812568 308.28277,22.2503445 308.28277,21.7414501 C308.28277,21.3146353 308.362919,20.9083467 308.523221,20.5225718 C308.683522,20.136797 308.92397,19.800275 309.244573,19.5129959 C309.565175,19.2257168 309.9539,19.0000008 310.410758,18.8358413 C310.867617,18.6716818 311.400611,18.5896033 312.009755,18.5896033 C312.6189,18.5896033 313.216013,18.7045132 313.801113,18.9343365 C314.386213,19.1641598 314.887146,19.4596425 315.30393,19.8207934 L314.726848,20.5841313 C314.342125,20.2886442 313.933363,20.0383047 313.50055,19.8331053 C313.067736,19.627906 312.55478,19.5253078 311.961665,19.5253078 C311.512822,19.5253078 311.128105,19.5868667 310.807502,19.7099863 C310.4869,19.833106 310.218399,19.9931591 310.001992,20.1901505 C309.785586,20.3871419 309.625287,20.6169618 309.521091,20.879617 C309.416895,21.1422722 309.364798,21.4049234 309.364798,21.6675787 C309.364798,22.0123136 309.44094,22.3036924 309.593226,22.5417237 C309.745512,22.779755 309.949893,22.9890552 310.206375,23.1696306 C310.462857,23.3502061 310.755403,23.5102592 311.08402,23.6497948 L311.57995,23.8560192 L311.57995,23.8560192 L313.428414,24.5978112 C313.877258,24.7783867 314.282012,24.9999987 314.64269,25.2626539 C315.003368,25.5253091 315.295914,25.8495193 315.520335,26.2352941 C315.744757,26.621069 315.856966,27.1012283 315.856966,27.6757866 C315.856966,28.1190173 315.772809,28.5417217 315.604493,28.9439124 C315.436177,29.3461032 315.183706,29.6990409 314.847073,30.002736 C314.510441,30.3064311 314.101679,30.5485627 313.620775,30.7291382 C313.139871,30.9097136 312.58684,31 311.961665,31 Z M323.286892,31 C322.549506,31 321.856214,30.8604665 321.206994,30.5813953 C320.557774,30.3023242 319.99272,29.8960355 319.511816,29.3625171 C319.030913,28.8289987 318.650203,28.1805784 318.369676,27.4172367 C318.089149,26.653895 317.948887,25.7879665 317.948887,24.8194254 C317.948887,23.8508844 318.089149,22.980852 318.369676,22.2093023 C318.650203,21.4377526 319.026905,20.7852284 319.499794,20.25171 C319.972683,19.7181916 320.509684,19.307799 321.110813,19.0205198 C321.711943,18.7332407 322.333101,18.5896033 322.974306,18.5896033 C324.352897,18.5896033 325.434914,19.0656587 326.22039,20.0177839 C327.005866,20.969909 327.398599,22.3159968 327.398599,24.0560876 L327.398599,24.499316 C327.398599,24.6470596 327.382569,24.7948009 327.350508,24.9425445 L319.030915,24.9425445 C319.046945,25.6812622 319.159154,26.3666179 319.367546,26.998632 C319.575938,27.6306461 319.868483,28.1723644 320.245191,28.623803 C320.621899,29.0752417 321.074743,29.4281793 321.603737,29.6826265 C322.132731,29.9370738 322.725837,30.0642955 323.383072,30.0642955 C324.008247,30.0642955 324.573301,29.9699052 325.07825,29.7811218 C325.583198,29.5923383 326.052073,29.333791 326.484886,29.005472 L326.917697,29.8426813 C326.452824,30.1217524 325.943875,30.3844037 325.390835,30.630643 C324.837796,30.8768822 324.136489,31 323.286892,31 Z M319.030915,24.0560876 L326.388706,24.0560876 C326.388706,22.5294041 326.084138,21.3926166 325.474993,20.6456908 C324.865848,19.8987651 324.040309,19.5253078 322.998351,19.5253078 C322.501417,19.5253078 322.028536,19.627906 321.579692,19.8331053 C321.130849,20.0383047 320.726094,20.3378913 320.365416,20.7318741 C320.004739,21.125857 319.708186,21.6019124 319.475749,22.1600547 C319.243312,22.718197 319.095036,23.3502017 319.030915,24.0560876 Z M330.524457,30.7045144 L330.524457,18.8850889 L331.43817,18.8850889 L331.53435,21.0766074 L331.606485,21.0766074 C331.991208,20.3378896 332.460082,19.7387164 333.013122,19.2790698 C333.566161,18.8194231 334.187319,18.5896033 334.876614,18.5896033 C335.101036,18.5896033 335.30141,18.606019 335.477741,18.6388509 C335.654073,18.6716828 335.838416,18.7373456 336.030778,18.8358413 L335.790327,19.8207934 C335.597966,19.7387137 335.429652,19.6853626 335.285381,19.6607387 C335.141109,19.6361148 334.956766,19.623803 334.732344,19.623803 C334.21938,19.623803 333.678371,19.8495189 333.109302,20.3009576 C332.540233,20.7523962 332.031284,21.5362461 331.58244,22.6525308 L331.58244,30.7045144 L330.524457,30.7045144 Z M343.075982,30.7045144 L343.075982,14.4774282 L344.182056,14.4774282 L344.182056,21.5937073 L352.669964,21.5937073 L352.669964,14.4774282 L353.776037,14.4774282 L353.776037,30.7045144 L352.669964,30.7045144 L352.669964,22.5786594 L344.182056,22.5786594 L344.182056,30.7045144 L343.075982,30.7045144 Z M360.845287,31 C360.380414,31 359.947607,30.9343372 359.546854,30.8030096 C359.1461,30.671682 358.793443,30.4746935 358.488871,30.2120383 C358.184298,29.9493831 357.94385,29.6128611 357.767519,29.2024624 C357.591187,28.7920636 357.503023,28.3078003 357.503023,27.749658 C357.503023,26.4363819 358.100136,25.4391279 359.29438,24.7578659 C360.488625,24.076604 362.376144,23.5882368 364.956994,23.2927497 C364.956994,22.849519 364.924934,22.402191 364.860813,21.9507524 C364.796693,21.4993137 364.660439,21.097129 364.452047,20.744186 C364.243656,20.3912431 363.963133,20.1039683 363.61047,19.8823529 C363.257807,19.6607376 362.792941,19.5499316 362.215856,19.5499316 C361.44641,19.5499316 360.741095,19.7058808 360.09989,20.0177839 C359.458685,20.3296869 358.937714,20.6333775 358.536961,20.9288646 L358.056059,20.1162791 C358.264451,19.9685355 358.516922,19.8043785 358.813479,19.623803 C359.110036,19.4432276 359.442656,19.2790705 359.811349,19.1313269 C360.180042,18.9835834 360.580789,18.8563617 361.013603,18.749658 C361.446416,18.6429543 361.895253,18.5896033 362.360126,18.5896033 C363.033392,18.5896033 363.602453,18.7086171 364.067326,18.9466484 C364.5322,19.1846797 364.908902,19.5088899 365.197444,19.9192886 C365.485987,20.3296874 365.694375,20.8098468 365.822616,21.3597811 C365.950857,21.9097155 366.014977,22.5047848 366.014977,23.1450068 L366.014977,30.7045144 L365.101264,30.7045144 L365.005084,29.1778386 L364.932949,29.1778386 C364.339834,29.6539011 363.702646,30.0766055 363.021366,30.4459644 C362.340085,30.8153233 361.614733,31 360.845287,31 Z M361.037648,30.0642955 C361.710913,30.0642955 362.352108,29.9001384 362.961253,29.5718194 C363.570398,29.2435004 364.235638,28.767445 364.956994,28.1436389 L364.956994,24.129959 C363.770764,24.2777025 362.768897,24.4582753 361.95136,24.6716826 C361.133824,24.88509 360.476599,25.1395334 359.979665,25.4350205 C359.482731,25.7305076 359.126066,26.0670296 358.909659,26.4445964 C358.693253,26.8221633 358.585051,27.2407638 358.585051,27.7004104 C358.585051,28.1272251 358.64917,28.4883706 358.777411,28.7838577 C358.905652,29.0793448 359.081981,29.3214765 359.306403,29.5102599 C359.530825,29.6990434 359.79131,29.8385768 360.087868,29.9288646 C360.384425,30.0191523 360.701015,30.0642955 361.037648,30.0642955 Z M370.126683,30.7045144 L370.126683,18.8850889 L371.040396,18.8850889 L371.136576,20.7072503 L371.208711,20.7072503 C371.801826,20.0998602 372.410961,19.5950773 373.036136,19.1928865 C373.661311,18.7906957 374.374641,18.5896033 375.176147,18.5896033 C376.378407,18.5896033 377.26005,18.9589566 377.821105,19.6976744 C378.382159,20.4363922 378.662682,21.5772837 378.662682,23.120383 L378.662682,30.7045144 L377.604699,30.7045144 L377.604699,23.2681259 C377.604699,22.0040976 377.400318,21.0725064 376.99155,20.4733242 C376.582782,19.874142 375.905519,19.5745554 374.959742,19.5745554 C374.270446,19.5745554 373.645281,19.7592321 373.084226,20.128591 C372.523172,20.4979499 371.889992,21.0519799 371.184666,21.7906977 L371.184666,30.7045144 L370.126683,30.7045144 Z M386.741825,31 C385.283083,31 384.120917,30.4705935 383.25529,29.4117647 C382.389663,28.3529359 381.956856,26.8221714 381.956856,24.8194254 C381.956856,23.8673003 382.09311,23.0054758 382.365622,22.2339261 C382.638135,21.4623764 383.010829,20.8057483 383.483718,20.2640219 C383.956607,19.7222955 384.501623,19.307799 385.118783,19.0205198 C385.735942,18.7332407 386.38916,18.5896033 387.078456,18.5896033 C387.783781,18.5896033 388.396924,18.716825 388.917903,18.9712722 C389.438882,19.2257195 389.987906,19.582761 390.56499,20.0424077 L390.5169,17.875513 L390.5169,13 L391.574883,13 L391.574883,30.7045144 L390.661171,30.7045144 L390.56499,29.1778386 L390.492855,29.1778386 C390.027982,29.6539011 389.478958,30.0766055 388.845768,30.4459644 C388.212578,30.8153233 387.511271,31 386.741825,31 Z M386.886095,30.0396717 C387.5273,30.0396717 388.140443,29.8714107 388.725543,29.5348837 C389.310642,29.1983567 389.907755,28.7181974 390.5169,28.0943912 L390.5169,21.0766074 C389.907755,20.5184651 389.334687,20.1244882 388.797678,19.8946648 C388.260669,19.6648415 387.711645,19.5499316 387.150591,19.5499316 C386.573506,19.5499316 386.036505,19.6853612 385.539571,19.9562244 C385.042637,20.2270875 384.613838,20.5964409 384.25316,21.0642955 C383.892482,21.5321501 383.607952,22.090284 383.39956,22.7387141 C383.191169,23.3871441 383.086974,24.0807077 383.086974,24.8194254 C383.086974,25.6073911 383.171131,26.3214742 383.339448,26.9616963 C383.507764,27.6019184 383.75222,28.1477406 384.072822,28.5991792 C384.393425,29.0506179 384.790164,29.4035555 385.263053,29.6580027 C385.735942,29.91245 386.27695,30.0396717 386.886095,30.0396717 Z M400.519648,31 C399.958594,31 399.377511,30.8645704 398.776381,30.5937073 C398.175251,30.3228441 397.602183,29.9575946 397.057159,29.497948 L397.009068,29.497948 L396.888843,30.7045144 L395.999176,30.7045144 L395.999176,13 L397.057159,13 L397.057159,18.121751 L397.009068,20.4363885 C397.602183,19.927494 398.235363,19.4924779 398.908629,19.1313269 C399.581894,18.770176 400.279194,18.5896033 401.00055,18.5896033 C402.539442,18.5896033 403.693593,19.1354255 404.463039,20.2270862 C405.232485,21.3187469 405.617203,22.7838485 405.617203,24.622435 C405.617203,25.623808 405.480949,26.5184639 405.208436,27.3064295 C404.935924,28.0943952 404.563229,28.7633351 404.090341,29.3132695 C403.617452,29.8632038 403.072436,30.2818043 402.455276,30.5690834 C401.838116,30.8563626 401.192914,31 400.519648,31 Z M400.471558,30.0396717 C401.048643,30.0396717 401.585644,29.908346 402.082578,29.6456908 C402.579512,29.3830356 403.004303,29.0136823 403.356966,28.5376197 C403.709629,28.0615571 403.986144,27.4911114 404.186521,26.8262654 C404.386898,26.1614194 404.487084,25.4268166 404.487084,24.622435 C404.487084,23.9001332 404.418957,23.2270893 404.282701,22.6032832 C404.146445,21.979477 403.934049,21.4418627 403.645507,20.9904241 C403.356965,20.5389854 402.980262,20.1860478 402.515389,19.9316005 C402.050515,19.6771533 401.489469,19.5499316 400.832234,19.5499316 C400.25515,19.5499316 399.654029,19.7181926 399.028854,20.0547196 C398.403679,20.3912466 397.746454,20.8714059 397.057159,21.495212 L397.057159,28.5129959 C397.698364,29.0711382 398.315514,29.4651151 398.908629,29.6949384 C399.501743,29.9247618 400.022715,30.0396717 400.471558,30.0396717 Z M413.239489,31 C412.550193,31 411.892968,30.8604665 411.267793,30.5813953 C410.642618,30.3023242 410.093595,29.9001394 409.620706,29.374829 C409.147818,28.8495186 408.771115,28.2052022 408.490588,27.4418605 C408.210061,26.6785188 408.069799,25.8043825 408.069799,24.8194254 C408.069799,23.8344684 408.210061,22.9521243 408.490588,22.1723666 C408.771115,21.392609 409.147818,20.7400847 409.620706,20.2147743 C410.093595,19.6894639 410.642618,19.2872791 411.267793,19.0082079 C411.892968,18.7291368 412.550193,18.5896033 413.239489,18.5896033 C413.928784,18.5896033 414.590017,18.7291368 415.223207,19.0082079 C415.856397,19.2872791 416.409428,19.6894639 416.882317,20.2147743 C417.355205,20.7400847 417.731908,21.392609 418.012435,22.1723666 C418.292962,22.9521243 418.433223,23.8344684 418.433223,24.8194254 C418.433223,25.8043825 418.292962,26.6785188 418.012435,27.4418605 C417.731908,28.2052022 417.355205,28.8495186 416.882317,29.374829 C416.409428,29.9001394 415.856397,30.3023242 415.223207,30.5813953 C414.590017,30.8604665 413.928784,31 413.239489,31 Z M413.239489,30.0396717 C413.816573,30.0396717 414.357582,29.91245 414.862531,29.6580027 C415.36748,29.4035555 415.800287,29.0465139 416.160965,28.5868673 C416.521642,28.1272207 416.806173,27.5772946 417.014564,26.9370725 C417.222956,26.2968504 417.32715,25.5909751 417.32715,24.8194254 C417.32715,24.0314598 417.222956,23.3173767 417.014564,22.6771546 C416.806173,22.0369325 416.521642,21.4829025 416.160965,21.0150479 C415.800287,20.5471933 415.36748,20.1860478 414.862531,19.9316005 C414.357582,19.6771533 413.816573,19.5499316 413.239489,19.5499316 C412.662404,19.5499316 412.125403,19.6771533 411.628469,19.9316005 C411.131535,20.1860478 410.702736,20.5471933 410.342058,21.0150479 C409.98138,21.4829025 409.69685,22.0369325 409.488458,22.6771546 C409.280067,23.3173767 409.175872,24.0314598 409.175872,24.8194254 C409.175872,25.5909751 409.280067,26.2968504 409.488458,26.9370725 C409.69685,27.5772946 409.98138,28.1272207 410.342058,28.5868673 C410.702736,29.0465139 411.131535,29.4035555 411.628469,29.6580027 C412.125403,29.91245 412.662404,30.0396717 413.239489,30.0396717 Z M426.1036,31 C425.414305,31 424.757079,30.8604665 424.131904,30.5813953 C423.506729,30.3023242 422.957706,29.9001394 422.484817,29.374829 C422.011929,28.8495186 421.635226,28.2052022 421.354699,27.4418605 C421.074172,26.6785188 420.93391,25.8043825 420.93391,24.8194254 C420.93391,23.8344684 421.074172,22.9521243 421.354699,22.1723666 C421.635226,21.392609 422.011929,20.7400847 422.484817,20.2147743 C422.957706,19.6894639 423.506729,19.2872791 424.131904,19.0082079 C424.757079,18.7291368 425.414305,18.5896033 426.1036,18.5896033 C426.792895,18.5896033 427.454128,18.7291368 428.087318,19.0082079 C428.720508,19.2872791 429.273539,19.6894639 429.746428,20.2147743 C430.219316,20.7400847 430.596019,21.392609 430.876546,22.1723666 C431.157073,22.9521243 431.297334,23.8344684 431.297334,24.8194254 C431.297334,25.8043825 431.157073,26.6785188 430.876546,27.4418605 C430.596019,28.2052022 430.219316,28.8495186 429.746428,29.374829 C429.273539,29.9001394 428.720508,30.3023242 428.087318,30.5813953 C427.454128,30.8604665 426.792895,31 426.1036,31 Z M426.1036,30.0396717 C426.680684,30.0396717 427.221693,29.91245 427.726642,29.6580027 C428.231591,29.4035555 428.664398,29.0465139 429.025076,28.5868673 C429.385753,28.1272207 429.670284,27.5772946 429.878675,26.9370725 C430.087067,26.2968504 430.191261,25.5909751 430.191261,24.8194254 C430.191261,24.0314598 430.087067,23.3173767 429.878675,22.6771546 C429.670284,22.0369325 429.385753,21.4829025 429.025076,21.0150479 C428.664398,20.5471933 428.231591,20.1860478 427.726642,19.9316005 C427.221693,19.6771533 426.680684,19.5499316 426.1036,19.5499316 C425.526515,19.5499316 424.989514,19.6771533 424.49258,19.9316005 C423.995647,20.1860478 423.566847,20.5471933 423.206169,21.0150479 C422.845491,21.4829025 422.560961,22.0369325 422.352569,22.6771546 C422.144178,23.3173767 422.039984,24.0314598 422.039984,24.8194254 C422.039984,25.5909751 422.144178,26.2968504 422.352569,26.9370725 C422.560961,27.5772946 422.845491,28.1272207 423.206169,28.5868673 C423.566847,29.0465139 423.995647,29.4035555 424.49258,29.6580027 C424.989514,29.91245 425.526515,30.0396717 426.1036,30.0396717 Z M434.759824,30.7045144 L434.759824,13 L435.817807,13 L435.817807,26.0506156 L435.865897,26.0506156 L441.564578,18.8850889 L442.790877,18.8850889 L439.039846,23.5636115 L443.416048,30.7045144 L442.23784,30.7045144 L438.414674,24.376197 L435.817807,27.4787962 L435.817807,30.7045144 L434.759824,30.7045144 Z M453.130256,30.7045144 L448.802143,18.8850889 L449.956307,18.8850889 L452.553174,26.2968536 C452.729505,26.8714119 452.921864,27.4459616 453.130256,28.0205198 C453.338647,28.5950781 453.531006,29.1532121 453.707337,29.6949384 L453.803517,29.6949384 L454.392622,28.0205198 L454.392622,28.0205198 C454.592998,27.4459616 454.789364,26.8714119 454.981726,26.2968536 L457.578593,18.8850889 L458.660621,18.8850889 L454.380599,30.7045144 L453.130256,30.7045144 Z M460.968948,30.7045144 L460.968948,29.744186 L464.575708,29.744186 L464.575708,16.6935705 L461.83457,16.6935705 L461.83457,15.9548564 C462.459745,15.8399447 463.016783,15.7004112 463.505702,15.5362517 C463.994621,15.3720922 464.42342,15.1833116 464.792113,14.9699042 L465.657736,14.9699042 L465.657736,29.744186 L469,29.744186 L469,30.7045144 L460.968948,30.7045144 Z" id="UserHandbookv1"></path>
                <polygon id="Line" points="275 7 273 7 273 39 275 39"></polygon>
            </g>
        </g>
    </g>
</svg>