<?xml version="1.0" encoding="UTF-8"?>
<svg width="313px" height="32px" viewBox="0 0 313 32" version="1.1" xmlns="http://www.w3.org/2000/svg" xmlns:xlink="http://www.w3.org/1999/xlink">
    <!-- Generator: Sketch 59.1 (86144) - https://sketch.com -->
    <title>logo_paraswap-handbook</title>
    <desc>Created with Sketch.</desc>
    <g id="Page-1" stroke="none" stroke-width="1" fill="none" fill-rule="evenodd">
        <g id="Desktop-HD-Copy-2" transform="translate(-211.000000, -67.000000)" fill="#FFFFFF" fill-rule="nonzero">
            <g id="logo_paraswap-handbook" transform="translate(211.000000, 67.000000)">
                <path d="M40,0 L21.500419,32 L3,0 L40,0 Z M8.49989354,17 L17,32 L0,32 L8.49989354,17 Z M32.4447421,4.23576799 L10.5558865,4.23576799 L21.500419,23.1675146 L32.4447421,4.23576799 Z" id="Combined-Shape" transform="translate(20.000000, 16.000000) scale(-1, 1) rotate(-180.000000) translate(-20.000000, -16.000000) "></path>
                <path d="M145.983314,12 C146.655543,12 147.311879,12.0233722 147.952324,12.0699557 C148.59277,12.1158943 149.174414,12.1763398 149.700437,12.2500027 C150.224871,12.3243104 150.685738,12.3936213 151.086214,12.4584189 C151.483512,12.5232165 151.788638,12.583662 152,12.6391107 L152,12.6391107 L152,21.694656 C152,22.4533682 151.895113,23.1566317 151.683751,23.8050913 C151.473977,24.4530674 151.137068,25.0135183 150.677791,25.4856381 C150.213747,25.9585639 149.609853,26.3288129 148.866111,26.5970298 C148.120779,26.8652467 147.21176,27 146.142233,27 C145.091776,27 144.193881,26.9345576 143.44855,26.8054459 C142.703218,26.6756896 142.151768,26.5372291 141.795788,26.3892584 L141.795788,26.3892584 L142.078665,24.8057468 C142.352006,24.8982688 142.782677,25.0178703 143.36909,25.1664857 C143.958681,25.3144563 144.850219,25.3887641 146.046881,25.3887641 C146.885976,25.3887641 147.562972,25.2735147 148.077871,25.0417261 C148.59277,24.8094542 148.991656,24.5040027 149.276122,24.1244048 C149.55741,23.7452906 149.741757,23.3197541 149.825983,22.8468283 C149.897497,22.4432134 149.93246,22.0270259 149.943584,21.6026177 L149.943584,21.6026177 L149.95153,21.6026177 L149.95153,21.4080637 C149.95153,21.4011325 149.953119,21.395491 149.953119,21.3885599 L149.953119,20.4996077 L149.95153,20.4996077 L149.95153,18.9165798 L149.953119,18.9165798 L149.953119,13.8612386 C149.531983,13.7869309 149.023441,13.7264853 148.424314,13.6805467 C147.826778,13.6339634 147.127532,13.6112359 146.329757,13.6112359 C145.679778,13.6112359 145.096544,13.6623325 144.581645,13.7643645 C144.068335,13.8655907 143.626539,14.0274234 143.259435,14.2497018 C142.892332,14.4719801 142.607867,14.7679214 142.409217,15.1394599 C142.208979,15.5097088 142.110448,15.9623249 142.110448,16.5000483 C142.110448,17.1114346 142.256655,17.6012852 142.550656,17.9721789 C142.844656,18.3424279 143.222885,18.6345007 143.68534,18.8474301 C144.146205,19.0601984 144.64998,19.1986589 145.196663,19.2642625 C145.743345,19.3284152 146.267779,19.3604917 146.771554,19.3604917 C147.167263,19.3604917 147.520064,19.3492085 147.839492,19.3284152 L147.839492,19.3284152 L147.839492,20.8659882 C147.812475,20.8679225 147.788637,20.8722746 147.763211,20.8748535 C147.437425,20.9032227 147.127532,20.9170848 146.833532,20.9170848 C145.848232,20.9170848 144.934446,20.833267 144.093762,20.6664374 C143.254668,20.4996077 142.529995,20.2357429 141.921335,19.875004 C141.312674,19.5134592 140.839094,19.0558463 140.503774,18.4997475 C140.168454,17.9444546 140,17.2782643 140,16.5000483 C140,15.6847591 140.152563,14.9951965 140.456098,14.4310384 C140.759634,13.8655907 141.18077,13.4028197 141.716329,13.041436 C142.251887,12.6806972 142.881208,12.4168323 143.60588,12.2500027 C144.330552,12.0838178 145.12356,12 145.983314,12 Z M93.9845838,12 C94.6552594,12 95.3116314,12.0233722 95.9521099,12.0699557 C96.5925884,12.1158943 97.1758541,12.1763398 97.7003157,12.2500027 C98.2247761,12.3243104 98.6872559,12.3936213 99.086165,12.4584189 C99.4850741,12.5232165 99.7902154,12.583662 100,12.6391107 L100,12.6391107 L100,21.694656 C100,22.4533682 99.8951077,23.1566317 99.685323,23.8050913 C99.4755384,24.4530674 99.1386111,25.0135183 98.6777202,25.4856381 C98.2152404,25.9585639 97.6113157,26.3288129 96.8659449,26.5970298 C96.1205729,26.8652467 95.2130958,27 94.1419223,27 C93.0914102,27 92.1934687,26.9345576 91.4485735,26.8054459 C90.7030442,26.6756896 90.1523595,26.5372291 89.7954073,26.3892584 L89.7954073,26.3892584 L90.0784581,24.8057468 C90.3510184,24.8982688 90.7818719,25.0178703 91.3703811,25.1664857 C91.9576195,25.3144563 92.8498396,25.3887641 94.0465656,25.3887641 C94.8872943,25.3887641 95.5627365,25.2735147 96.0792525,25.0417261 C96.5925884,24.8094542 96.9914975,24.5040027 97.2759786,24.1244048 C97.5588696,23.7452906 97.7416361,23.3197541 97.8274571,22.8468283 C97.8989746,22.4432134 97.9323494,22.0270259 97.9434752,21.6026177 L97.9434752,21.6026177 L97.9530108,21.6026177 L97.9530108,13.8612386 C97.5318515,13.7869309 97.0248723,13.7264853 96.4257142,13.6805467 C95.8265574,13.6339634 95.1288637,13.6112359 94.3310467,13.6112359 C93.6794425,13.6112359 93.096178,13.6623325 92.5828409,13.7643645 C92.067915,13.8655907 91.6267319,14.0274234 91.2592905,14.2497018 C90.8916906,14.4719801 90.6086411,14.7679214 90.4093457,15.1394599 C90.2100503,15.5097088 90.1107196,15.9623249 90.1107196,16.5000483 C90.1107196,17.1114346 90.2572518,17.6012852 90.5515856,17.9721789 C90.8444891,18.3424279 91.2225782,18.6345007 91.685058,18.8474301 C92.1473793,19.0601984 92.6511807,19.1986589 93.1963025,19.2642625 C93.7430144,19.3284152 94.267476,19.3604917 94.7712762,19.3604917 C95.1670064,19.3604917 95.5182371,19.3492085 95.8392708,19.3284152 L95.8392708,19.3284152 L95.8392708,20.8659882 C95.8122539,20.8679225 95.7900036,20.8722746 95.7629855,20.8748535 C95.437184,20.9032227 95.1288637,20.9170848 94.8348481,20.9170848 C93.8479067,20.9170848 92.9340717,20.833267 92.0949331,20.6664374 C91.254841,20.4996077 90.5304486,20.2357429 89.9214366,19.875004 C89.3117905,19.5134592 88.8392983,19.0558463 88.5034832,18.4997475 C88.1676692,17.9444546 88,17.2782643 88,16.5000483 C88,15.6847591 88.1527304,14.9951965 88.4562816,14.4310384 C88.7611058,13.8655907 89.1808337,13.4028197 89.715943,13.041436 C90.2516889,12.6806972 90.8824732,12.4168323 91.6055949,12.2500027 C92.3301458,12.0838178 93.1231961,12 93.9845838,12 Z M68.9848222,12 C69.6558415,12 70.31208,12.0233722 70.9529023,12.0699557 C71.5929307,12.1158943 72.1759001,12.1763398 72.7011777,12.2500027 C73.2250248,12.3243104 73.6883169,12.3936213 74.0867651,12.4584189 C74.4853718,12.5232165 74.790207,12.583662 75,12.6391107 L75,12.6391107 L75,21.694656 C75,22.4533682 74.8951035,23.1566317 74.685947,23.8050913 C74.4755175,24.4530674 74.1388951,25.0135183 73.6776687,25.4856381 C73.2158059,25.9585639 72.6116974,26.3288129 71.8661384,26.5970298 C71.1204196,26.8652467 70.2127466,27 69.1418487,27 C68.0914533,27 67.1942699,26.9345576 66.4487109,26.8054459 C65.7029921,26.6756896 65.1522855,26.5372291 64.7953191,26.3892584 L64.7953191,26.3892584 L65.0791762,24.8057468 C65.3515888,24.8982688 65.781823,25.0178703 66.3705153,25.1664857 C66.957776,25.3144563 67.8505096,25.3887641 69.0474418,25.3887641 C69.8869321,25.3887641 70.5641499,25.2735147 71.0789378,25.0417261 C71.5929307,24.8094542 71.992808,24.5040027 72.27587,24.1244048 C72.5595674,23.7452906 72.7426595,23.3197541 72.827212,22.8468283 C72.8985738,22.4432134 72.9327451,22.0270259 72.9445054,21.6026177 L72.9445054,21.6026177 L72.952611,21.6026177 L72.9529293,21.3983118 L72.9529293,21.3983118 L72.9532475,21.3885599 L72.9532475,20.4996077 L72.952611,20.4996077 L72.952611,18.9165798 L72.9532475,18.9165798 L72.9532475,13.8612386 C72.5328665,13.7869309 72.0244367,13.7264853 71.4252548,13.6805467 C70.8275033,13.6339634 70.1289879,13.6112359 69.3311392,13.6112359 C68.6799858,13.6112359 68.0970164,13.6623325 67.5828638,13.7643645 C67.0682356,13.8655907 66.6268752,14.0274234 66.2598972,14.2497018 C65.8924412,14.4719801 65.6087438,14.7679214 65.410077,15.1394599 C65.2101371,15.5097088 65.1108037,15.9623249 65.1108037,16.5000483 C65.1108037,17.1114346 65.2573405,17.6012852 65.5515275,17.9721789 C65.8446024,18.3424279 66.2227066,18.6345007 66.6852048,18.8474301 C67.1470665,19.0601984 67.6505697,19.1986589 68.1969851,19.2642625 C68.7426066,19.3284152 69.2685195,19.3604917 69.7720228,19.3604917 C70.166815,19.3604917 70.5188537,19.3492085 70.8392648,19.3284152 L70.8392648,19.3284152 L70.8392648,20.8659882 C70.8131992,20.8679225 70.7901542,20.8722746 70.7640886,20.8748535 C70.4381155,20.9032227 70.1289879,20.9170848 69.8346424,20.9170848 C68.8475031,20.9170848 67.934267,20.833267 67.0949365,20.6664374 C66.2549694,20.4996077 65.5303897,20.2357429 64.9213546,19.875004 C64.3116831,19.5134592 63.8393305,19.0558463 63.5033447,18.4997475 C63.1681527,17.9444546 63,17.2782643 63,16.5000483 C63,15.6847591 63.1525767,14.9951965 63.4562998,14.4310384 C63.761135,13.8655907 64.180721,13.4028197 64.7158529,13.041436 C65.2522554,12.6806972 65.8824283,12.4168323 66.6070092,12.2500027 C67.3314304,12.0838178 68.1230807,12 68.9848222,12 Z M158.058448,7 L158.058448,13.0388768 C158.418037,12.7950202 158.99338,12.537634 159.784476,12.2657403 C160.577169,11.9951505 161.512101,11.8588777 162.587671,11.8588777 C163.77032,11.8588777 164.82032,12.0461714 165.739269,12.4205957 C166.658219,12.7950202 167.433334,13.3145197 168.067808,13.9799096 C168.700685,14.6446473 169.181735,15.4399527 169.507762,16.3676189 C169.835389,17.2947961 170,18.3103223 170,19.4151758 C170,20.5950121 169.803425,21.6525938 169.413471,22.5892253 C169.021918,23.5253677 168.473745,24.3211622 167.767351,24.9770977 C167.059361,25.6322181 166.213927,26.132809 165.232649,26.4798484 C164.25137,26.8262358 163.158219,27 161.954795,27 C160.49726,27 159.293836,26.9154 158.344521,26.746526 C157.393608,26.5784669 156.612101,26.4001385 156,26.2130079 L156,26.2130079 L156,7 L158.058448,7 Z M80.1193412,12 L80.1193412,24.8935256 C80.293608,24.9690046 80.6579392,25.0638076 81.2121707,25.1780995 C81.7662367,25.2915657 82.4996705,25.349042 83.41379,25.349042 C84.2828199,25.349042 84.9835083,25.3057696 85.5170042,25.2207112 C86.0491844,25.1348271 86.4021611,25.0548888 86.5762638,24.9794098 L86.5762638,24.9794098 L87,26.5728914 C86.7607336,26.6676943 86.3320595,26.7620018 85.7123348,26.8574653 C85.0927743,26.9522683 84.4352009,27 83.7389569,27 C82.3698343,27 81.2062466,26.8903326 80.2491774,26.6723189 C79.2927673,26.45414 78.5425474,26.2399251 78,26.031656 L78,26.031656 L78,12 L80.1193412,12 Z M48.0590679,7 L48.0590679,13.0388768 C48.4174029,12.7950202 48.9931045,12.537634 49.784734,12.2657403 C50.5770029,11.9951505 51.5110388,11.8588777 52.5879619,11.8588777 C53.7705323,11.8588777 54.8212431,12.0461714 55.7396161,12.4205957 C56.6586292,12.7950202 57.4345952,13.3145197 58.0676759,13.9799096 C58.7013943,14.6446473 59.1815193,15.4399527 59.5086874,16.3676189 C59.8364957,17.2947961 60,18.3103223 60,19.4151758 C60,20.5950121 59.8045296,21.6525938 59.4143883,22.5892253 C59.0229692,23.5253677 58.4741184,24.3211622 57.7673577,24.9770977 C57.0594786,25.6322181 56.2152651,26.132809 55.2332801,26.4798484 C54.2504967,26.8262358 53.1585489,27 51.9548824,27 C50.497728,27 49.2940611,26.9154 48.3437222,26.746526 C47.3935429,26.5784669 46.612462,26.4001385 46,26.2130079 L46,26.2130079 L46,7 L48.0590679,7 Z M107.805422,12 C109.722488,12 111.23445,12.3385195 112.341307,13.015886 C113.446571,13.6934163 114,14.6901407 114,16.0080249 C114,16.7034065 113.862839,17.2816901 113.590111,17.7436947 C113.314195,18.2048804 112.956938,18.598919 112.515152,18.928431 C112.07177,19.257943 111.559809,19.5399606 110.982456,19.7741565 C110.401914,20.0076973 109.795853,20.2373076 109.164274,20.4618408 C108.553429,20.6870291 108.011164,20.8924009 107.535885,21.0805765 C107.062201,21.2672781 106.661882,21.4695381 106.334928,21.6857189 C106.007975,21.9032099 105.760766,22.1528005 105.593301,22.4361284 C105.422647,22.7189649 105.339713,23.0579757 105.339713,23.4546347 C105.339713,23.4766995 105.342092,26.0854815 105.343768,26.8134366 L105.344498,27 L103.266348,27 C103.261998,26.9267486 103.255012,23.9878698 103.253778,23.3921189 L103.253589,23.2888961 C103.253589,22.6683589 103.379585,22.1411725 103.633173,21.7088109 C103.886762,21.2756305 104.22169,20.9040288 104.644339,20.5936783 C105.065391,20.2833278 105.550239,20.010809 106.097288,19.7754667 C106.645933,19.5399606 107.22488,19.3096954 107.837321,19.0838519 C108.594896,18.8018342 109.232855,18.5573207 109.749602,18.3501473 C110.264752,18.1434653 110.68102,17.9266295 110.99681,17.700786 C111.314195,17.4749427 111.539075,17.2215852 111.677831,16.9389125 C111.813397,16.6567311 111.881977,16.3177203 111.881977,15.9228627 C111.881977,15.0951523 111.497608,14.507206 110.728867,14.1591877 C109.960128,13.8105142 108.985646,13.6370782 107.805422,13.6370782 C107.151516,13.6370782 106.577353,13.6742548 106.082934,13.7497543 C105.586922,13.8245987 105.161085,13.9148379 104.802233,14.0178512 C104.443382,14.1208647 104.159489,14.2161808 103.948963,14.2998689 C103.738437,14.3850311 103.601276,14.445791 103.53748,14.4834589 L103.53748,14.4834589 L103,12.8188666 C103.253589,12.7050442 103.759171,12.5406158 104.518341,12.32509 C105.275917,12.1080904 106.371611,12 107.805422,12 Z M122.71245,12 C123.039261,12.6285284 123.384324,13.3349944 123.747633,14.120655 C124.109283,14.905687 124.484206,15.7447725 124.867423,16.6377543 C125.252299,17.5315218 125.625562,18.4705433 125.983895,19.4563902 C126.345546,20.4408229 126.688948,21.4488254 127.01576,22.4799263 C127.344231,21.4511824 127.689294,20.4458511 128.050943,19.4625184 C128.412594,18.4798141 128.785858,17.5418925 129.172393,16.6495392 C129.558927,15.7564002 129.93385,14.9179433 130.298818,14.1335398 C130.662128,13.3491363 131.012165,12.6376421 131.343955,12 L131.343955,12 L133.324739,12 C134.446188,14.0383177 135.476394,16.1933846 136.410383,18.4663008 C137.346029,20.7385882 138.208682,23.250188 139,26 L139,26 L136.893136,26 C136.652588,25.0413369 136.35066,24.0064648 135.987351,22.8949122 C135.6257,21.7832025 135.234188,20.6809207 134.817793,19.5901096 C134.398078,18.4988271 133.981683,17.4620693 133.563628,16.4795222 C133.145573,15.4961896 132.749084,14.6626036 132.375821,13.9770362 C131.93454,14.8799173 131.499896,15.8459655 131.073546,16.8759666 C130.643879,17.9053391 130.239096,18.9480677 129.857538,20.00321 C129.47598,21.0596091 129.125942,22.0969954 128.809083,23.1164685 C128.492224,24.1365702 128.236746,25.0971188 128.04099,26 L128.04099,26 L126.199557,26 C125.939103,25.0983759 125.645469,24.1378273 125.318656,23.1170971 C124.990184,22.0963668 124.641805,21.0627518 124.27186,20.0154663 C123.901915,18.9677093 123.505426,17.9285946 123.084053,16.8981222 C122.662681,15.8668642 122.241308,14.9025443 121.821595,14.0046915 C121.448331,14.6902589 121.046865,15.5213307 120.618857,16.4972782 C120.18919,17.4725973 119.766158,18.5062123 119.348103,19.5981233 C118.930048,20.689563 118.538536,21.7899593 118.176885,22.9004119 C117.813575,24.0094503 117.509988,25.042594 117.267782,26 L117.267782,26 L115,26 C115.786341,23.2552162 116.644017,20.7447163 117.576347,18.470072 C118.507016,16.1958988 119.533905,14.0389462 120.658672,12 L120.658672,12 L122.71245,12 Z M162.447903,13 C161.949868,13 161.474771,13.043335 161.020969,13.1280203 C160.565531,13.2132017 160.142857,13.3230279 159.752948,13.4561756 C159.36304,13.5886617 159.022281,13.7307411 158.730668,13.8832407 C158.439056,14.0350787 158.194953,14.1778197 158,14.3109674 L158,14.3109674 L158,24.6007222 C158.324377,24.6956624 158.807667,24.7861366 159.444954,24.8721451 C160.08388,24.9573266 160.922673,25 161.961337,25 C163.779816,25 165.239514,24.481799 166.343709,23.446224 C167.449541,22.4104837 168,20.9238604 168,18.9855274 C168,18.1687778 167.903342,17.3935438 167.708388,16.6628027 C167.513434,15.9307383 167.198886,15.2949373 166.766383,14.7529186 C166.333879,14.2115615 165.765399,13.7838348 165.062581,13.4704001 C164.358126,13.1571308 163.488204,13 162.447903,13 Z M52.4478125,13 C51.9492779,13 51.4736812,13.043335 51.0193812,13.1280203 C50.5644261,13.2132017 50.1425647,13.3230279 49.7528138,13.4561756 C49.363063,13.5886617 49.0219696,13.7307411 48.7301889,13.8832407 C48.4384083,14.0350787 48.1946297,14.1778197 48,14.3109674 L48,14.3109674 L48,24.6007222 C48.3238913,24.6956624 48.8063697,24.7861366 49.4444864,24.8721451 C50.0830945,24.9573266 50.9220664,25 51.9600907,25 C53.7789284,25 55.239962,24.481799 56.3431903,23.446224 C57.4477309,22.4104837 58,20.9238604 58,18.9855274 C58,18.1687778 57.9026852,17.3935438 57.707564,16.6628027 C57.513099,15.9307383 57.1988728,15.2949373 56.766199,14.7529186 C56.3323776,14.2115615 55.7647077,13.7838348 55.0613868,13.4704001 C54.357411,13.1571308 53.4863289,13 52.4478125,13 Z" id="path-1" transform="translate(108.000000, 17.000000) scale(-1, 1) rotate(-180.000000) translate(-108.000000, -17.000000) "></path>
                <path d="M199.584,20.192 C199.135998,20.192 198.698669,20.125334 198.272,19.992 C197.845331,19.858666 197.466668,19.629335 197.136,19.304 C196.805332,18.978665 196.541334,18.5440027 196.344,18 C196.146666,17.456 196.048,16.7733374 196.048,15.952 L196.048,9.456 L196.784,9.456 L196.784,15.872 C196.784,16.5760035 196.861333,17.1599977 197.016,17.624 C197.170667,18.0880023 197.375999,18.4613319 197.632,18.744 C197.888001,19.0266681 198.183998,19.2266661 198.52,19.344 C198.856002,19.4613339 199.210665,19.52 199.584,19.52 C199.968002,19.52 200.333332,19.4613339 200.68,19.344 C201.026668,19.2266661 201.330665,19.0266681 201.592,18.744 C201.853335,18.4613319 202.063999,18.0880023 202.224,17.624 C202.384001,17.1599977 202.464,16.5760035 202.464,15.872 L202.464,9.456 L203.152,9.456 L203.152,15.952 C203.152,16.7733374 203.050668,17.456 202.848,18 C202.645332,18.5440027 202.378668,18.978665 202.048,19.304 C201.717332,19.629335 201.338669,19.858666 200.912,19.992 C200.485331,20.125334 200.042669,20.192 199.584,20.192 Z M208,20.192 C207.423997,20.192 206.896002,20.088001 206.416,19.88 C205.935998,19.671999 205.525335,19.4240014 205.184,19.136 L205.6,18.608 C205.930668,18.8853347 206.282665,19.1173324 206.656,19.304 C207.029335,19.4906676 207.493331,19.584 208.048,19.584 C208.656003,19.584 209.111998,19.4320015 209.416,19.128 C209.720002,18.8239985 209.872,18.4693354 209.872,18.064 C209.872,17.8293322 209.816001,17.6213342 209.704,17.44 C209.591999,17.2586658 209.445334,17.1040006 209.264,16.976 C209.082666,16.8479994 208.882668,16.7360005 208.664,16.64 C208.445332,16.5439995 208.224001,16.4533338 208,16.368 C207.711999,16.2613328 207.421335,16.1493339 207.128,16.032 C206.834665,15.9146661 206.570668,15.7733342 206.336,15.608 C206.101332,15.4426658 205.912001,15.2453345 205.768,15.016 C205.623999,14.7866655 205.552,14.5066683 205.552,14.176 C205.552,13.8986653 205.605333,13.6346679 205.712,13.384 C205.818667,13.1333321 205.978666,12.9146676 206.192,12.728 C206.405334,12.5413324 206.663998,12.3946672 206.968,12.288 C207.272002,12.1813328 207.626665,12.128 208.032,12.128 C208.437335,12.128 208.834665,12.2026659 209.224,12.352 C209.613335,12.5013341 209.946665,12.6933322 210.224,12.928 L209.84,13.424 C209.583999,13.231999 209.312001,13.069334 209.024,12.936 C208.735999,12.802666 208.394669,12.736 208,12.736 C207.701332,12.736 207.445334,12.7759996 207.232,12.856 C207.018666,12.9360004 206.840001,13.0399994 206.696,13.168 C206.551999,13.2960006 206.445334,13.4453325 206.376,13.616 C206.306666,13.7866675 206.272,13.9573325 206.272,14.128 C206.272,14.3520011 206.322666,14.5413326 206.424,14.696 C206.525334,14.8506674 206.661332,14.9866661 206.832,15.104 C207.002668,15.2213339 207.197332,15.3253329 207.416,15.416 L207.746,15.55 L207.746,15.55 L208.976,16.032 C209.274668,16.1493339 209.543999,16.2933325 209.784,16.464 C210.024001,16.6346675 210.218666,16.8453321 210.368,17.096 C210.517334,17.3466679 210.592,17.6586648 210.592,18.032 C210.592,18.3200014 210.536001,18.5946654 210.424,18.856 C210.311999,19.1173346 210.144001,19.3466657 209.92,19.544 C209.695999,19.7413343 209.424002,19.8986661 209.104,20.016 C208.783998,20.1333339 208.416002,20.192 208,20.192 Z M215.536,20.192 C215.045331,20.192 214.584002,20.1013342 214.152,19.92 C213.719998,19.7386658 213.344002,19.4746684 213.024,19.128 C212.703998,18.7813316 212.450668,18.3600025 212.264,17.864 C212.077332,17.3679975 211.984,16.8053365 211.984,16.176 C211.984,15.5466635 212.077332,14.9813358 212.264,14.48 C212.450668,13.9786642 212.701332,13.5546684 213.016,13.208 C213.330668,12.8613316 213.687998,12.5946676 214.088,12.408 C214.488002,12.2213324 214.901331,12.128 215.328,12.128 C216.245338,12.128 216.965331,12.4373302 217.488,13.056 C218.010669,13.6746698 218.272,14.5493277 218.272,15.68 L218.272,15.968 C218.272,16.0640005 218.261333,16.1599995 218.24,16.256 L212.704,16.256 C212.714667,16.7360024 212.789333,17.1813313 212.928,17.592 C213.066667,18.0026687 213.261332,18.3546652 213.512,18.648 C213.762668,18.9413348 214.063998,19.1706658 214.416,19.336 C214.768002,19.5013342 215.162664,19.584 215.6,19.584 C216.016002,19.584 216.391998,19.5226673 216.728,19.4 C217.064002,19.2773327 217.375999,19.1093344 217.664,18.896 L217.952,19.44 C217.642665,19.6213342 217.304002,19.7919992 216.936,19.952 C216.567998,20.1120008 216.101336,20.192 215.536,20.192 Z M212.704,15.68 L217.6,15.68 C217.6,14.687995 217.397335,13.9493358 216.992,13.464 C216.586665,12.9786642 216.037337,12.736 215.344,12.736 C215.013332,12.736 214.698668,12.802666 214.4,12.936 C214.101332,13.069334 213.832001,13.2639987 213.592,13.52 C213.351999,13.7760013 213.154667,14.0853315 213,14.448 C212.845333,14.8106685 212.746667,15.221331 212.704,15.68 Z M220.352,20 L220.352,12.32 L220.96,12.32 L221.024,13.744 L221.072,13.744 C221.328001,13.2639976 221.639998,12.8746682 222.008,12.576 C222.376002,12.2773318 222.789331,12.128 223.248,12.128 C223.397334,12.128 223.530666,12.1386666 223.648,12.16 C223.765334,12.1813334 223.887999,12.2239997 224.016,12.288 L223.856,12.928 C223.727999,12.8746664 223.616,12.8400001 223.52,12.824 C223.424,12.8079999 223.301334,12.8 223.152,12.8 C222.810665,12.8 222.450669,12.9466652 222.072,13.24 C221.693331,13.5333348 221.354668,14.042663 221.056,14.768 L221.056,20 L220.352,20 Z M228.704,20 L228.704,9.456 L229.44,9.456 L229.44,14.08 L235.088,14.08 L235.088,9.456 L235.824,9.456 L235.824,20 L235.088,20 L235.088,14.72 L229.44,14.72 L229.44,20 L228.704,20 Z M240.528,20.192 C240.218665,20.192 239.930668,20.1493338 239.664,20.064 C239.397332,19.9786662 239.162668,19.8506675 238.96,19.68 C238.757332,19.5093325 238.597334,19.290668 238.48,19.024 C238.362666,18.757332 238.304,18.4426685 238.304,18.08 C238.304,17.2266624 238.701329,16.5786689 239.496,16.136 C240.290671,15.6933311 241.546658,15.376001 243.264,15.184 C243.264,14.8959986 243.242667,14.6053348 243.2,14.312 C243.157333,14.0186652 243.066667,13.7573345 242.928,13.528 C242.789333,13.2986655 242.602668,13.1120007 242.368,12.968 C242.133332,12.8239993 241.824002,12.752 241.44,12.752 C240.927997,12.752 240.458669,12.8533323 240.032,13.056 C239.605331,13.2586677 239.258668,13.455999 238.992,13.648 L238.672,13.12 C238.810667,13.0239995 238.978666,12.9173339 239.176,12.8 C239.373334,12.6826661 239.594665,12.5760005 239.84,12.48 C240.085335,12.3839995 240.351999,12.3013337 240.64,12.232 C240.928001,12.1626663 241.226665,12.128 241.536,12.128 C241.984002,12.128 242.362665,12.2053326 242.672,12.36 C242.981335,12.5146674 243.231999,12.725332 243.424,12.992 C243.616001,13.258668 243.754666,13.5706649 243.84,13.928 C243.925334,14.2853351 243.968,14.6719979 243.968,15.088 L243.968,20 L243.36,20 L243.296,19.008 L243.248,19.008 C242.853331,19.3173349 242.429336,19.5919988 241.976,19.832 C241.522664,20.0720012 241.040003,20.192 240.528,20.192 Z M240.656,19.584 C241.104002,19.584 241.530665,19.4773344 241.936,19.264 C242.341335,19.0506656 242.783998,18.7413354 243.264,18.336 L243.264,15.728 C242.474663,15.8240005 241.808003,15.9413326 241.264,16.08 C240.719997,16.2186674 240.282668,16.383999 239.952,16.576 C239.621332,16.768001 239.384001,16.9866654 239.24,17.232 C239.095999,17.4773346 239.024,17.7493318 239.024,18.048 C239.024,18.3253347 239.066666,18.559999 239.152,18.752 C239.237334,18.944001 239.354666,19.1013327 239.504,19.224 C239.653334,19.3466673 239.826666,19.437333 240.024,19.496 C240.221334,19.554667 240.431999,19.584 240.656,19.584 Z M246.704,20 L246.704,12.32 L247.312,12.32 L247.376,13.504 L247.424,13.504 C247.818669,13.1093314 248.223998,12.7813346 248.64,12.52 C249.056002,12.2586654 249.530664,12.128 250.064,12.128 C250.864004,12.128 251.450665,12.3679976 251.824,12.848 C252.197335,13.3280024 252.384,14.0693283 252.384,15.072 L252.384,20 L251.68,20 L251.68,15.168 C251.68,14.3466626 251.544001,13.7413353 251.272,13.352 C250.999999,12.9626647 250.549336,12.768 249.92,12.768 C249.461331,12.768 249.045335,12.8879988 248.672,13.128 C248.298665,13.3680012 247.877336,13.7279976 247.408,14.208 L247.408,20 L246.704,20 Z M257.76,20.192 C256.789328,20.192 256.016003,19.8480034 255.44,19.16 C254.863997,18.4719966 254.576,17.4773398 254.576,16.176 C254.576,15.5573302 254.666666,14.9973358 254.848,14.496 C255.029334,13.9946642 255.277332,13.5680018 255.592,13.216 C255.906668,12.8639982 256.269331,12.5946676 256.68,12.408 C257.090669,12.2213324 257.525331,12.128 257.984,12.128 C258.453336,12.128 258.861332,12.2106658 259.208,12.376 C259.554668,12.5413342 259.919998,12.7733318 260.304,13.072 L260.272,11.664 L260.272,8.496 L260.976,8.496 L260.976,20 L260.368,20 L260.304,19.008 L260.256,19.008 C259.946665,19.3173349 259.581335,19.5919988 259.16,19.832 C258.738665,20.0720012 258.272003,20.192 257.76,20.192 Z M257.856,19.568 C258.282669,19.568 258.690665,19.4586678 259.08,19.24 C259.469335,19.0213322 259.866665,18.7093354 260.272,18.304 L260.272,13.744 C259.866665,13.3813315 259.485335,13.1253341 259.128,12.976 C258.770665,12.8266659 258.405335,12.752 258.032,12.752 C257.647998,12.752 257.290668,12.8399991 256.96,13.016 C256.629332,13.1920009 256.344001,13.4319985 256.104,13.736 C255.863999,14.0400015 255.674667,14.4026646 255.536,14.824 C255.397333,15.2453354 255.328,15.6959976 255.328,16.176 C255.328,16.6880026 255.383999,17.1519979 255.496,17.568 C255.608001,17.9840021 255.770666,18.3386652 255.984,18.632 C256.197334,18.9253348 256.461332,19.1546658 256.776,19.32 C257.090668,19.4853342 257.450665,19.568 257.856,19.568 Z M266.928,20.192 C266.554665,20.192 266.168002,20.1040009 265.768,19.928 C265.367998,19.7519991 264.986668,19.5146682 264.624,19.216 L264.592,19.216 L264.512,20 L263.92,20 L263.92,8.496 L264.624,8.496 L264.624,11.824 L264.592,13.328 C264.986669,12.9973317 265.407998,12.7146678 265.856,12.48 C266.304002,12.2453322 266.767998,12.128 267.248,12.128 C268.272005,12.128 269.039997,12.4826631 269.552,13.192 C270.064003,13.9013369 270.32,14.8533274 270.32,16.048 C270.32,16.6986699 270.229334,17.2799974 270.048,17.792 C269.866666,18.3040026 269.618668,18.7386649 269.304,19.096 C268.989332,19.4533351 268.626669,19.7253324 268.216,19.912 C267.805331,20.0986676 267.376002,20.192 266.928,20.192 Z M266.896,19.568 C267.280002,19.568 267.637332,19.4826675 267.968,19.312 C268.298668,19.1413325 268.581332,18.9013349 268.816,18.592 C269.050668,18.2826651 269.234666,17.9120022 269.368,17.48 C269.501334,17.0479978 269.568,16.5706693 269.568,16.048 C269.568,15.5786643 269.522667,15.1413354 269.432,14.736 C269.341333,14.3306646 269.200001,13.9813348 269.008,13.688 C268.815999,13.3946652 268.565335,13.1653342 268.256,13 C267.946665,12.8346658 267.573336,12.752 267.136,12.752 C266.751998,12.752 266.352002,12.8613322 265.936,13.08 C265.519998,13.2986678 265.082669,13.6106646 264.624,14.016 L264.624,18.576 C265.050669,18.9386685 265.461331,19.1946659 265.856,19.344 C266.250669,19.4933341 266.597332,19.568 266.896,19.568 Z M275.392,20.192 C274.933331,20.192 274.496002,20.1013342 274.08,19.92 C273.663998,19.7386658 273.298668,19.477335 272.984,19.136 C272.669332,18.794665 272.418668,18.3760025 272.232,17.88 C272.045332,17.3839975 271.952,16.8160032 271.952,16.176 C271.952,15.5359968 272.045332,14.9626692 272.232,14.456 C272.418668,13.9493308 272.669332,13.525335 272.984,13.184 C273.298668,12.842665 273.663998,12.5813342 274.08,12.4 C274.496002,12.2186658 274.933331,12.128 275.392,12.128 C275.850669,12.128 276.290665,12.2186658 276.712,12.4 C277.133335,12.5813342 277.501332,12.842665 277.816,13.184 C278.130668,13.525335 278.381332,13.9493308 278.568,14.456 C278.754668,14.9626692 278.848,15.5359968 278.848,16.176 C278.848,16.8160032 278.754668,17.3839975 278.568,17.88 C278.381332,18.3760025 278.130668,18.794665 277.816,19.136 C277.501332,19.477335 277.133335,19.7386658 276.712,19.92 C276.290665,20.1013342 275.850669,20.192 275.392,20.192 Z M275.392,19.568 C275.776002,19.568 276.135998,19.4853342 276.472,19.32 C276.808002,19.1546658 277.095999,18.9226682 277.336,18.624 C277.576001,18.3253318 277.765333,17.9680021 277.904,17.552 C278.042667,17.1359979 278.112,16.6773358 278.112,16.176 C278.112,15.6639974 278.042667,15.2000021 277.904,14.784 C277.765333,14.3679979 277.576001,14.0080015 277.336,13.704 C277.095999,13.3999985 276.808002,13.1653342 276.472,13 C276.135998,12.8346658 275.776002,12.752 275.392,12.752 C275.007998,12.752 274.650668,12.8346658 274.32,13 C273.989332,13.1653342 273.704001,13.3999985 273.464,13.704 C273.223999,14.0080015 273.034667,14.3679979 272.896,14.784 C272.757333,15.2000021 272.688,15.6639974 272.688,16.176 C272.688,16.6773358 272.757333,17.1359979 272.896,17.552 C273.034667,17.9680021 273.223999,18.3253318 273.464,18.624 C273.704001,18.9226682 273.989332,19.1546658 274.32,19.32 C274.650668,19.4853342 275.007998,19.568 275.392,19.568 Z M283.952,20.192 C283.493331,20.192 283.056002,20.1013342 282.64,19.92 C282.223998,19.7386658 281.858668,19.477335 281.544,19.136 C281.229332,18.794665 280.978668,18.3760025 280.792,17.88 C280.605332,17.3839975 280.512,16.8160032 280.512,16.176 C280.512,15.5359968 280.605332,14.9626692 280.792,14.456 C280.978668,13.9493308 281.229332,13.525335 281.544,13.184 C281.858668,12.842665 282.223998,12.5813342 282.64,12.4 C283.056002,12.2186658 283.493331,12.128 283.952,12.128 C284.410669,12.128 284.850665,12.2186658 285.272,12.4 C285.693335,12.5813342 286.061332,12.842665 286.376,13.184 C286.690668,13.525335 286.941332,13.9493308 287.128,14.456 C287.314668,14.9626692 287.408,15.5359968 287.408,16.176 C287.408,16.8160032 287.314668,17.3839975 287.128,17.88 C286.941332,18.3760025 286.690668,18.794665 286.376,19.136 C286.061332,19.477335 285.693335,19.7386658 285.272,19.92 C284.850665,20.1013342 284.410669,20.192 283.952,20.192 Z M283.952,19.568 C284.336002,19.568 284.695998,19.4853342 285.032,19.32 C285.368002,19.1546658 285.655999,18.9226682 285.896,18.624 C286.136001,18.3253318 286.325333,17.9680021 286.464,17.552 C286.602667,17.1359979 286.672,16.6773358 286.672,16.176 C286.672,15.6639974 286.602667,15.2000021 286.464,14.784 C286.325333,14.3679979 286.136001,14.0080015 285.896,13.704 C285.655999,13.3999985 285.368002,13.1653342 285.032,13 C284.695998,12.8346658 284.336002,12.752 283.952,12.752 C283.567998,12.752 283.210668,12.8346658 282.88,13 C282.549332,13.1653342 282.264001,13.3999985 282.024,13.704 C281.783999,14.0080015 281.594667,14.3679979 281.456,14.784 C281.317333,15.2000021 281.248,15.6639974 281.248,16.176 C281.248,16.6773358 281.317333,17.1359979 281.456,17.552 C281.594667,17.9680021 281.783999,18.3253318 282.024,18.624 C282.264001,18.9226682 282.549332,19.1546658 282.88,19.32 C283.210668,19.4853342 283.567998,19.568 283.952,19.568 Z M289.712,20 L289.712,8.496 L290.416,8.496 L290.416,16.976 L290.448,16.976 L294.24,12.32 L295.056,12.32 L292.56,15.36 L295.472,20 L294.688,20 L292.144,15.888 L290.416,17.904 L290.416,20 L289.712,20 Z M301.936,20 L299.056,12.32 L299.824,12.32 L301.552,17.136 C301.669334,17.5093352 301.797333,17.8826648 301.936,18.256 C302.074667,18.6293352 302.202666,18.9919982 302.32,19.344 L302.384,19.344 L302.776,18.256 L302.776,18.256 C302.909334,17.8826648 303.039999,17.5093352 303.168,17.136 L304.896,12.32 L305.616,12.32 L302.768,20 L301.936,20 Z M307.152,20 L307.152,19.376 L309.552,19.376 L309.552,10.896 L307.728,10.896 L307.728,10.416 C308.144002,10.341333 308.514665,10.2506672 308.84,10.144 C309.165335,10.0373328 309.450665,9.91466736 309.696,9.776 L310.272,9.776 L310.272,19.376 L312.496,19.376 L312.496,20 L307.152,20 Z" id="UserHandbookv1"></path>
                <polygon id="Line" points="183 5 182 5 182 26 183 26"></polygon>
            </g>
        </g>
    </g>
</svg>