<?xml version="1.0" encoding="UTF-8"?>
<svg width="300px" height="48px" viewBox="0 0 300 48" version="1.1" xmlns="http://www.w3.org/2000/svg" xmlns:xlink="http://www.w3.org/1999/xlink">
    <!-- Generator: Sketch 59.1 (86144) - https://sketch.com -->
    <title>logo_paraswap-handbook</title>
    <desc>Created with Sketch.</desc>
    <g id="Page-1" stroke="none" stroke-width="1" fill="none" fill-rule="evenodd">
        <g id="Desktop-HD-Copy-2" transform="translate(-211.000000, -67.000000)" fill="#005dde" fill-rule="nonzero">
            <g id="logo_paraswap-handbook" transform="translate(211.000000, 67.000000)">
                <path d="M60,0 L32.2506285,48 L4.5,0 L60,0 Z M12.7498403,25.5 L25.5,48 L0,48 L12.7498403,25.5 Z M48.6671132,6.35365199 L15.8338297,6.35365199 L32.2506285,34.7512718 L48.6671132,6.35365199 Z" id="Combined-Shape" transform="translate(30.000000, 24.000000) scale(-1, 1) rotate(-180.000000) translate(-30.000000, -24.000000) "></path>
                <path d="M218.974971,18.5 C219.983314,18.5 220.967819,18.5350583 221.928486,18.6049335 C222.889154,18.6738414 223.761622,18.7645097 224.550656,18.875004 C225.337307,18.9864656 226.028606,19.0904319 226.629322,19.1876283 C227.225269,19.2848247 227.682956,19.375493 228,19.4586661 L228,19.4586661 L228,33.041984 C228,34.1800524 227.84267,35.2349476 227.525626,36.207637 C227.210966,37.179601 226.705602,38.0202774 226.016687,38.7284571 C225.320621,39.4378458 224.41478,39.9932193 223.299166,40.3955446 C222.181169,40.7978701 220.81764,41 219.21335,41 C217.637665,41 216.290822,40.9018363 215.172825,40.7081689 C214.054828,40.5135344 213.227652,40.3058436 212.693682,40.0838876 L212.693682,40.0838876 L213.117998,37.7086202 C213.528009,37.8474033 214.174016,38.0268055 215.053635,38.2497285 C215.938021,38.4716845 217.275328,38.5831461 219.070322,38.5831461 C220.328963,38.5831461 221.344458,38.410272 222.116806,38.0625892 C222.889154,37.7141813 223.487485,37.2560041 223.914184,36.6866073 C224.336115,36.1179359 224.612635,35.4796312 224.738975,34.7702425 C224.846245,34.1648201 224.89869,33.5405388 224.915376,32.9039265 L224.915376,32.9039265 L224.927295,32.9039265 L224.927295,32.6120956 C224.927295,32.6016988 224.929678,32.5932365 224.929678,32.5828398 L224.929678,31.2494116 L224.927295,31.2494116 L224.927295,28.8748697 L224.929678,28.8748697 L224.929678,21.2918579 C224.297975,21.1803963 223.535161,21.089728 222.636471,21.0208201 C221.740167,20.9509452 220.691298,20.9168539 219.494636,20.9168539 C218.519667,20.9168539 217.644816,20.9934987 216.872468,21.1465468 C216.102503,21.298386 215.439809,21.5411351 214.889153,21.8745527 C214.338497,22.2079701 213.9118,22.651882 213.613826,23.2091899 C213.313468,23.7645633 213.165673,24.4434874 213.165673,25.2500725 C213.165673,26.1671519 213.384982,26.9019277 213.825984,27.4582684 C214.266984,28.0136419 214.834327,28.4517511 215.52801,28.7711452 C216.219308,29.0902975 216.97497,29.2979883 217.794995,29.3963937 C218.615018,29.4926228 219.401668,29.5407376 220.157331,29.5407376 C220.750894,29.5407376 221.280096,29.5238127 221.759238,29.4926228 L221.759238,29.4926228 L221.759238,31.7989823 C221.718713,31.8018837 221.682956,31.8084119 221.644816,31.8122803 C221.156138,31.854834 220.691298,31.8756272 220.250298,31.8756272 C218.772348,31.8756272 217.401669,31.7499005 216.140643,31.499656 C214.882002,31.2494116 213.794993,30.8536144 212.882003,30.3125061 C211.96901,29.7701887 211.258641,29.0837694 210.75566,28.2496212 C210.252681,27.4166819 210,26.4173964 210,25.2500725 C210,24.0271386 210.228844,22.9927948 210.684147,22.1465576 C211.139451,21.298386 211.771155,20.6042296 212.574494,20.062154 C213.37783,19.5210459 214.321812,19.1252485 215.40882,18.875004 C216.495828,18.6257266 217.685339,18.5 218.974971,18.5 Z M140.976876,18.5 C141.982889,18.5 142.967447,18.5350583 143.928165,18.6049335 C144.888883,18.6738414 145.763781,18.7645097 146.550474,18.875004 C147.337164,18.9864656 148.030884,19.0904319 148.629247,19.1876283 C149.227611,19.2848247 149.685323,19.375493 150,19.4586661 L150,19.4586661 L150,33.041984 C150,34.1800524 149.842662,35.2349476 149.527985,36.207637 C149.213308,37.179601 148.707917,38.0202774 148.01658,38.7284571 C147.322861,39.4378458 146.416974,39.9932193 145.298917,40.3955446 C144.180859,40.7978701 142.819644,41 141.212883,41 C139.637115,41 138.290203,40.9018363 137.17286,40.7081689 C136.054566,40.5135344 135.228539,40.3058436 134.693111,40.0838876 L134.693111,40.0838876 L135.117687,37.7086202 C135.526528,37.8474033 136.172808,38.0268055 137.055572,38.2497285 C137.936429,38.4716845 139.274759,38.5831461 141.069848,38.5831461 C142.330941,38.5831461 143.344105,38.410272 144.118879,38.0625892 C144.888883,37.7141813 145.487246,37.2560041 145.913968,36.6866073 C146.338304,36.1179359 146.612454,35.4796312 146.741186,34.7702425 C146.848462,34.1648201 146.898524,33.5405388 146.915213,32.9039265 L146.915213,32.9039265 L146.929516,32.9039265 L146.929516,21.2918579 C146.297777,21.1803963 145.537308,21.089728 144.638571,21.0208201 C143.739836,20.9509452 142.693296,20.9168539 141.49657,20.9168539 C140.519164,20.9168539 139.644267,20.9934987 138.874261,21.1465468 C138.101872,21.298386 137.440098,21.5411351 136.888936,21.8745527 C136.337536,22.2079701 135.912962,22.651882 135.614019,23.2091899 C135.315075,23.7645633 135.166079,24.4434874 135.166079,25.2500725 C135.166079,26.1671519 135.385878,26.9019277 135.827378,27.4582684 C136.266734,28.0136419 136.833867,28.4517511 137.527587,28.7711452 C138.221069,29.0902975 138.976771,29.2979883 139.794454,29.3963937 C140.614522,29.4926228 141.401214,29.5407376 142.156914,29.5407376 C142.75051,29.5407376 143.277356,29.5238127 143.758906,29.4926228 L143.758906,29.4926228 L143.758906,31.7989823 C143.718381,31.8018837 143.685005,31.8084119 143.644478,31.8122803 C143.155776,31.854834 142.693296,31.8756272 142.252272,31.8756272 C140.77186,31.8756272 139.401108,31.7499005 138.1424,31.499656 C136.882261,31.2494116 135.795673,30.8536144 134.882155,30.3125061 C133.967686,29.7701887 133.258947,29.0837694 132.755225,28.2496212 C132.251504,27.4166819 132,26.4173964 132,25.2500725 C132,24.0271386 132.229096,22.9927948 132.684422,22.1465576 C133.141659,21.298386 133.771251,20.6042296 134.573915,20.062154 C135.377533,19.5210459 136.32371,19.1252485 137.408392,18.875004 C138.495219,18.6257266 139.684794,18.5 140.976876,18.5 Z M103.477233,18.5 C104.483762,18.5 105.46812,18.5350583 106.429353,18.6049335 C107.389396,18.6738414 108.26385,18.7645097 109.051767,18.875004 C109.837537,18.9864656 110.532475,19.0904319 111.130148,19.1876283 C111.728058,19.2848247 112.18531,19.375493 112.5,19.4586661 L112.5,19.4586661 L112.5,33.041984 C112.5,34.1800524 112.342655,35.2349476 112.028921,36.207637 C111.713276,37.179601 111.208343,38.0202774 110.516503,38.7284571 C109.823709,39.4378458 108.917546,39.9932193 107.799208,40.3955446 C106.680629,40.7978701 105.31912,41 103.712773,41 C102.13718,41 100.791405,40.9018363 99.6730663,40.7081689 C98.5544882,40.5135344 97.7284282,40.3058436 97.1929787,40.0838876 L97.1929787,40.0838876 L97.6187643,37.7086202 C98.0273833,37.8474033 98.6727345,38.0268055 99.555773,38.2497285 C100.436664,38.4716845 101.775764,38.5831461 103.571163,38.5831461 C104.830398,38.5831461 105.846225,38.410272 106.618407,38.0625892 C107.389396,37.7141813 107.989212,37.2560041 108.413805,36.6866073 C108.839351,36.1179359 109.113989,35.4796312 109.240818,34.7702425 C109.347861,34.1648201 109.399118,33.5405388 109.416758,32.9039265 L109.416758,32.9039265 L109.428917,32.9039265 L109.429394,32.5974677 L109.429394,32.5974677 L109.429871,32.5828398 L109.429871,31.2494116 L109.428917,31.2494116 L109.428917,28.8748697 L109.429871,28.8748697 L109.429871,21.2918579 C108.7993,21.1803963 108.036655,21.089728 107.137882,21.0208201 C106.241255,20.9509452 105.193482,20.9168539 103.996709,20.9168539 C103.019979,20.9168539 102.145525,20.9934987 101.374296,21.1465468 C100.602353,21.298386 99.9403128,21.5411351 99.3898458,21.8745527 C98.8386617,22.2079701 98.4131157,22.651882 98.1151155,23.2091899 C97.8152056,23.7645633 97.6662055,24.4434874 97.6662055,25.2500725 C97.6662055,26.1671519 97.8860108,26.9019277 98.3272913,27.4582684 C98.7669036,28.0136419 99.3340599,28.4517511 100.027807,28.7711452 C100.7206,29.0902975 101.475855,29.2979883 102.295478,29.3963937 C103.11391,29.4926228 103.902779,29.5407376 104.658034,29.5407376 C105.250223,29.5407376 105.77828,29.5238127 106.258897,29.4926228 L106.258897,29.4926228 L106.258897,31.7989823 C106.219799,31.8018837 106.185231,31.8084119 106.146133,31.8122803 C105.657173,31.854834 105.193482,31.8756272 104.751964,31.8756272 C103.271255,31.8756272 101.901401,31.7499005 100.642405,31.499656 C99.3824541,31.2494116 98.2955845,30.8536144 97.382032,30.3125061 C96.4675246,29.7701887 95.7589958,29.0837694 95.255017,28.2496212 C94.752229,27.4166819 94.5,26.4173964 94.5,25.2500725 C94.5,24.0271386 94.7288651,22.9927948 95.1844497,22.1465576 C95.6417025,21.298386 96.2710815,20.6042296 97.0737793,20.062154 C97.8783831,19.5210459 98.8236425,19.1252485 99.9105138,18.875004 C100.997146,18.6257266 102.184621,18.5 103.477233,18.5 Z M237.087672,11 L237.087672,20.0583152 C237.627056,19.6925302 238.49007,19.306451 239.676714,18.8986104 C240.865754,18.4927258 242.268151,18.2883166 243.881507,18.2883166 C245.65548,18.2883166 247.23048,18.5692571 248.608904,19.1308936 C249.987329,19.6925302 251.150001,20.4717796 252.101712,21.4698643 C253.051027,22.4669709 253.772602,23.6599291 254.261643,25.0514283 C254.753083,26.4421941 255,27.9654835 255,29.6227637 C255,31.3925181 254.705137,32.9788907 254.120206,34.3838379 C253.532877,35.7880516 252.710617,36.9817432 251.651027,37.9656466 C250.589042,38.9483271 249.32089,39.6992135 247.848973,40.2197725 C246.377055,40.7393537 244.737329,41 242.932192,41 C240.74589,41 238.940753,40.8731 237.516781,40.619789 C236.090412,40.3677004 234.918151,40.1002077 234,39.8195118 L234,39.8195118 L234,11 L237.087672,11 Z M120.179012,18.5 L120.179012,37.8402885 C120.440412,37.9535069 120.986909,38.0957113 121.818256,38.2671492 C122.649355,38.4373485 123.749506,38.523563 125.120685,38.523563 C126.42423,38.523563 127.475262,38.4586545 128.275506,38.3310669 C129.073777,38.2022407 129.603242,38.0823332 129.864396,37.9691146 L129.864396,37.9691146 L130.5,40.3593371 C130.1411,40.5015414 129.498089,40.6430027 128.568502,40.7861979 C127.639161,40.9284024 126.652801,41 125.608435,41 C123.554751,41 121.80937,40.8354988 120.373766,40.5084784 C118.939151,40.18121 117.813821,39.8598877 117,39.5474841 L117,39.5474841 L117,18.5 L120.179012,18.5 Z M72.0886019,11 L72.0886019,20.0583152 C72.6261044,19.6925302 73.4896567,19.306451 74.6771011,18.8986104 C75.8655043,18.4927258 77.2665583,18.2883166 78.8819429,18.2883166 C80.6557984,18.2883166 82.2318647,18.5692571 83.6094242,19.1308936 C84.9879438,19.6925302 86.1518928,20.4717796 87.1015138,21.4698643 C88.0520914,22.4669709 88.7722789,23.6599291 89.2630311,25.0514283 C89.7547435,26.4421941 90,27.9654835 90,29.6227637 C90,31.3925181 89.7067944,32.9788907 89.1215825,34.3838379 C88.5344538,35.7880516 87.7111777,36.9817432 86.6510366,37.9656466 C85.5892179,38.9483271 84.3228977,39.6992135 82.8499201,40.2197725 C81.375745,40.7393537 79.7378234,41 77.9323236,41 C75.7465919,41 73.9410916,40.8731 72.5155832,40.619789 C71.0903143,40.3677004 69.918693,40.1002077 69,39.8195118 L69,39.8195118 L69,11 L72.0886019,11 Z M161.708133,18.5 C164.583732,18.5 166.851675,19.0077792 168.511961,20.0238289 C170.169856,21.0401244 171,22.5352111 171,24.5120374 C171,25.5551097 170.794258,26.4225352 170.385167,27.1155421 C169.971292,27.8073205 169.435407,28.3983785 168.772728,28.8926465 C168.107656,29.3869145 167.339713,29.8099409 166.473684,30.1612348 C165.602871,30.5115459 164.693779,30.8559613 163.746411,31.1927612 C162.830144,31.5305437 162.016746,31.8386013 161.303828,32.1208647 C160.593301,32.4009171 159.992822,32.7043071 159.502392,33.0285783 C159.011962,33.3548149 158.641148,33.7292007 158.389952,34.1541926 C158.133971,34.5784473 158.009569,35.0869636 158.009569,35.681952 C158.009569,35.7150493 158.013138,39.6282222 158.015652,40.7201549 L158.016746,41 L154.899522,41 C154.892996,40.8901229 154.882518,36.4818048 154.880666,35.5881783 L154.880383,35.4333442 C154.880383,34.5025384 155.069377,33.7117588 155.44976,33.0632164 C155.830143,32.4134458 156.332535,31.8560433 156.966508,31.3905175 C157.598087,30.9249917 158.325359,30.5162135 159.145932,30.1632001 C159.9689,29.8099409 160.837321,29.464543 161.755981,29.1257778 C162.892344,28.7027513 163.849283,28.335981 164.624403,28.025221 C165.397129,27.715198 166.021531,27.3899442 166.495215,27.051179 C166.971292,26.712414 167.308613,26.3323779 167.516747,25.9083688 C167.720096,25.4850966 167.822966,24.9765804 167.822966,24.384294 C167.822966,23.1427285 167.246411,22.2608089 166.093301,21.7387815 C164.940192,21.2157713 163.478469,20.9556173 161.708133,20.9556173 C160.727273,20.9556173 159.866029,21.0113822 159.124401,21.1246315 C158.380383,21.2368981 157.741627,21.3722568 157.20335,21.5267768 C156.665072,21.681297 156.239234,21.8242712 155.923444,21.9498034 C155.607655,22.0775467 155.401914,22.1686864 155.306219,22.2251883 L155.306219,22.2251883 L154.5,19.7282999 C154.880383,19.5575664 155.638757,19.3109236 156.777511,18.987635 C157.913876,18.6621356 159.557417,18.5 161.708133,18.5 Z M184.068674,18.5 C184.558892,19.4427927 185.076485,20.5024915 185.62145,21.6809825 C186.163924,22.8585305 186.726309,24.1171588 187.301134,25.4566315 C187.878448,26.7972827 188.438343,28.205815 188.975842,29.6845853 C189.518318,31.1612344 190.033422,32.6732381 190.52364,34.2198895 C191.016347,32.6767736 191.53394,31.1687766 192.076415,29.6937776 C192.618892,28.2197211 193.178787,26.8128388 193.75859,25.4743088 C194.338391,24.1346003 194.900775,22.876915 195.448227,21.7003097 C195.993192,20.5237044 196.518248,19.4564631 197.015933,18.5 L197.015933,18.5 L199.987109,18.5 C201.669282,21.5574766 203.214592,24.790077 204.615574,28.1994512 C206.019044,31.6078823 207.313023,35.375282 208.5,39.5 L208.5,39.5 L205.339705,39.5 C204.978882,38.0620054 204.525991,36.5096972 203.981026,34.8423683 C203.43855,33.1748038 202.851282,31.5213811 202.226689,29.8851644 C201.597117,28.2482407 200.972524,26.693104 200.345442,25.2192834 C199.718359,23.7442843 199.123626,22.4939054 198.563731,21.4655543 C197.90181,22.819876 197.249844,24.2689483 196.610319,25.8139499 C195.965819,27.3580087 195.358644,28.9221016 194.786307,30.504815 C194.213971,32.0894137 193.688912,33.6454931 193.213625,35.1747027 C192.738336,36.7048553 192.35512,38.1456782 192.061484,39.5 L192.061484,39.5 L189.299336,39.5 C188.908654,38.1475638 188.468204,36.706741 187.977984,35.1756457 C187.485276,33.6445502 186.962708,32.0941277 186.40779,30.5231994 C185.852873,28.9515639 185.258139,27.3928919 184.62608,25.8471833 C183.994022,24.3002963 183.361962,22.8538165 182.732392,21.5070372 C182.172497,22.5353883 181.570298,23.781996 180.928285,25.2459173 C180.283785,26.7088959 179.649237,28.2593184 179.022155,29.897185 C178.395072,31.5343444 177.807804,33.1849389 177.265327,34.8506178 C176.720363,36.5141754 176.264982,38.063891 175.901673,39.5 L175.901673,39.5 L172.5,39.5 C173.679512,35.3828244 174.966026,31.6170745 176.36452,28.2051079 C177.760525,24.7938483 179.300857,21.5584193 180.988007,18.5 L180.988007,18.5 L184.068674,18.5 Z M243.671855,20 C242.924803,20 242.212156,20.0650025 241.531454,20.1920304 C240.848297,20.3198025 240.214286,20.4845419 239.629422,20.6842634 C239.04456,20.8829926 238.533421,21.0961116 238.096001,21.324861 C237.658584,21.552618 237.29243,21.7667295 237,21.9664511 L237,21.9664511 L237,37.4010833 C237.486566,37.5434936 238.2115,37.679205 239.167431,37.8082176 C240.125819,37.9359899 241.38401,38 242.942006,38 C245.669724,38 247.859272,37.2226986 249.515563,35.6693361 C251.174312,34.1157255 252,31.8857906 252,28.9782911 C252,27.7531666 251.855012,26.5903157 251.562582,25.4942041 C251.270151,24.3961074 250.798329,23.4424059 250.149574,22.6293779 C249.500819,21.8173422 248.648099,21.1757521 247.593872,20.7056002 C246.537188,20.2356962 245.232306,20 243.671855,20 Z M78.6717188,20 C77.9239169,20 77.2105217,20.0650025 76.5290718,20.1920304 C75.8466392,20.3198025 75.213847,20.4845419 74.6292208,20.6842634 C74.0445945,20.8829926 73.5329544,21.0961116 73.0952833,21.324861 C72.6576124,21.552618 72.2919445,21.7667295 72,21.9664511 L72,21.9664511 L72,37.4010833 C72.485837,37.5434936 73.2095545,37.679205 74.1667296,37.8082176 C75.1246418,37.9359899 76.3830996,38 77.940136,38 C80.6683925,38 82.859943,37.2226986 84.5147855,35.6693361 C86.1715964,34.1157255 87,31.8857906 87,28.9782911 C87,27.7531666 86.8540277,26.5903157 86.561346,25.4942041 C86.2696485,24.3961074 85.7983092,23.4424059 85.1492985,22.6293779 C84.4985663,21.8173422 83.6470615,21.1757521 82.5920802,20.7056002 C81.5361165,20.2356962 80.2294934,20 78.6717188,20 Z" id="path-1" transform="translate(162.000000, 26.000000) scale(-1, 1) rotate(-180.000000) translate(-162.000000, -26.000000) "></path>
            </g>
        </g>
    </g>
</svg>